<?xml version="1.0" encoding="utf-8"?>
<!-- Generator: Adobe Illustrator 27.5.0, SVG Export Plug-In . SVG Version: 6.00 Build 0)  -->
<svg version="1.1" id="Layer_1" xmlns="http://www.w3.org/2000/svg" xmlns:xlink="http://www.w3.org/1999/xlink" x="0px" y="0px"
	 viewBox="0 0 676.5 84.3" style="enable-background:new 0 0 676.5 84.3;" xml:space="preserve">
<style type="text/css">
	.st0{fill:#143D8E;}
	.st1{fill:#147DC8;}
</style>
<path class="st0" d="M46.2,81.3L6.7,41.8L46.2,2.4l39.5,39.5L46.2,81.3z M13.5,41.8l32.8,32.8l32.8-32.8L46.2,9L13.5,41.8z"/>
<path class="st0" d="M86.1,81.3L46.6,41.8L86.1,2.4l39.5,39.5L86.1,81.3z M53.2,41.8l32.8,32.8l32.8-32.8L86.1,9L53.2,41.8z"/>
<g>
	<path class="st1" d="M66,43.2c-1.2,1.2-2.5,2.6-4.4,2.6c-2,0-3.4-1.4-3.4-3.5c0-1.9,1.5-3.5,3.6-3.5c1.7,0,3,1.4,4.2,2.6
		c1.2-1.2,2.5-2.6,4.4-2.6c2,0,3.4,1.4,3.4,3.5c0,1.9-1.5,3.5-3.6,3.5C68.5,45.7,67.1,44.3,66,43.2z M65,42.2
		c-1-0.9-1.9-2.1-3.2-2.1c-1.1,0-2.1,1-2.1,2.1c0,1.2,0.9,2.1,2,2.1C63,44.3,64.2,43.2,65,42.2z M72.3,42.2c0-1.2-0.9-2.1-2-2.1
		c-1.3,0-2.5,1.1-3.3,2.1c1,0.9,1.9,2.1,3.2,2.1C71.4,44.3,72.3,43.4,72.3,42.2z"/>
</g>
<g>
	<path class="st1" d="M173.6,48.4c-0.4,4-1.8,7.1-4.4,9.3c-2.6,2.2-6,3.3-10.2,3.3c-3,0-5.6-0.7-7.8-2.1c-2.3-1.4-4-3.4-5.2-6
		c-1.2-2.6-1.8-5.6-1.9-9v-3.5c0-3.5,0.6-6.6,1.8-9.2c1.3-2.7,3-4.7,5.3-6.2c2.3-1.5,5-2.2,8-2.2c4.1,0,7.4,1.1,9.9,3.3
		s4,5.4,4.4,9.4h-6.4c-0.3-2.7-1.1-4.6-2.3-5.8c-1.3-1.2-3.1-1.8-5.5-1.8c-2.8,0-5,1-6.5,3.1c-1.5,2.1-2.3,5.1-2.3,9.1v3.3
		c0,4,0.7,7.1,2.2,9.2c1.5,2.1,3.5,3.1,6.3,3.1c2.5,0,4.5-0.6,5.7-1.7c1.3-1.2,2.1-3,2.4-5.7H173.6z"/>
	<path class="st1" d="M185.3,60.5h-6.2V21.3h6.2V60.5z"/>
	<path class="st1" d="M191,46.4c0-2.7,0.5-5.1,1.6-7.3c1.1-2.2,2.6-3.8,4.5-5c1.9-1.2,4.2-1.7,6.7-1.7c3.7,0,6.7,1.2,9.1,3.6
		c2.3,2.4,3.6,5.6,3.8,9.5l0,1.5c0,2.7-0.5,5.2-1.5,7.3c-1,2.1-2.6,3.8-4.5,5c-1.9,1.2-4.2,1.7-6.7,1.7c-3.9,0-7-1.3-9.3-3.9
		c-2.3-2.6-3.5-6.1-3.5-10.4V46.4z M197.2,46.9c0,2.9,0.6,5.1,1.7,6.7s2.8,2.4,4.9,2.4s3.7-0.8,4.9-2.5c1.2-1.6,1.7-4,1.7-7.2
		c0-2.8-0.6-5-1.8-6.6c-1.2-1.6-2.8-2.5-4.9-2.5c-2,0-3.6,0.8-4.8,2.4C197.7,41.4,197.2,43.7,197.2,46.9z"/>
	<path class="st1" d="M238.6,57.8c-1.8,2.1-4.4,3.2-7.7,3.2c-3,0-5.3-0.9-6.8-2.6c-1.5-1.7-2.3-4.3-2.3-7.6V32.8h6.2v17.8
		c0,3.5,1.5,5.3,4.4,5.3c3,0,5-1.1,6.1-3.2V32.8h6.2v27.6h-5.9L238.6,57.8z"/>
	<path class="st1" d="M249.8,46.4c0-4.3,1-7.6,3-10.3c2-2.6,4.6-3.9,7.9-3.9c2.9,0,5.3,1,7.1,3V21.2h6.2v39.2h-5.6l-0.3-2.9
		c-1.8,2.2-4.3,3.4-7.4,3.4c-3.2,0-5.9-1.3-7.8-3.9C250.7,54.5,249.8,50.9,249.8,46.4z M256,47c0,2.8,0.5,5,1.6,6.6
		c1.1,1.6,2.6,2.4,4.6,2.4c2.5,0,4.4-1.1,5.6-3.4V40.7c-1.2-2.2-3-3.3-5.5-3.3c-2,0-3.5,0.8-4.6,2.4C256.5,41.4,256,43.8,256,47z"/>
	<path class="st1" d="M309.4,48.4c-0.4,4-1.8,7.1-4.4,9.3c-2.6,2.2-6,3.3-10.2,3.3c-3,0-5.6-0.7-7.8-2.1c-2.3-1.4-4-3.4-5.2-6
		c-1.2-2.6-1.8-5.6-1.9-9v-3.5c0-3.5,0.6-6.6,1.8-9.2c1.3-2.7,3-4.7,5.3-6.2c2.3-1.5,5-2.2,8-2.2c4.1,0,7.4,1.1,9.9,3.3
		c2.5,2.2,4,5.4,4.4,9.4h-6.4c-0.3-2.7-1.1-4.6-2.3-5.8c-1.3-1.2-3.1-1.8-5.5-1.8c-2.8,0-5,1-6.5,3.1c-1.5,2.1-2.3,5.1-2.3,9.1v3.3
		c0,4,0.7,7.1,2.2,9.2c1.5,2.1,3.5,3.1,6.3,3.1c2.5,0,4.5-0.6,5.7-1.7c1.3-1.2,2.1-3,2.4-5.7H309.4z"/>
	<path class="st1" d="M329,38.5c-0.8-0.1-1.6-0.2-2.5-0.2c-2.9,0-4.7,1.1-5.8,3.3v18.9h-6.2V32.8h6l0.1,3.1c1.5-2.4,3.6-3.6,6.2-3.6
		c0.9,0,1.6,0.1,2.2,0.3L329,38.5z"/>
	<path class="st1" d="M348.7,60.5c-0.3-0.5-0.5-1.4-0.7-2.6c-2,2.1-4.4,3.1-7.3,3.1c-2.8,0-5-0.8-6.8-2.4c-1.7-1.6-2.6-3.5-2.6-5.9
		c0-3,1.1-5.2,3.3-6.8s5.3-2.4,9.4-2.4h3.8v-1.8c0-1.5-0.4-2.6-1.2-3.4c-0.8-0.9-2-1.3-3.6-1.3c-1.4,0-2.6,0.3-3.5,1.1
		c-0.9,0.7-1.4,1.6-1.4,2.7h-6.2c0-1.5,0.5-3,1.5-4.3c1-1.3,2.4-2.4,4.1-3.1s3.6-1.1,5.8-1.1c3.2,0,5.8,0.8,7.7,2.4
		c1.9,1.6,2.9,3.9,3,6.9v12.4c0,2.5,0.3,4.5,1.1,6v0.4L348.7,60.5L348.7,60.5z M341.8,56c1.2,0,2.4-0.3,3.4-0.9
		c1.1-0.6,1.9-1.4,2.4-2.4v-5.2h-3.3c-2.3,0-4,0.4-5.2,1.2c-1.2,0.8-1.7,1.9-1.7,3.4c0,1.2,0.4,2.1,1.2,2.9
		C339.5,55.6,340.5,56,341.8,56z"/>
	<path class="st1" d="M368.2,26.1v6.7h4.9v4.6h-4.9v15.4c0,1.1,0.2,1.8,0.6,2.3c0.4,0.5,1.2,0.7,2.2,0.7c0.7,0,1.5-0.1,2.2-0.2v4.8
		c-1.4,0.4-2.8,0.6-4.1,0.6c-4.7,0-7.2-2.6-7.2-7.9V37.4h-4.5v-4.6h4.5v-6.7H368.2z"/>
	<path class="st1" d="M390,61c-3.9,0-7.1-1.3-9.5-3.7c-2.4-2.5-3.7-5.8-3.7-9.9v-0.8c0-2.8,0.5-5.2,1.6-7.4c1.1-2.2,2.6-3.9,4.5-5.1
		c1.9-1.2,4.1-1.8,6.4-1.8c3.8,0,6.7,1.2,8.7,3.6c2,2.4,3.1,5.8,3.1,10.2v2.5h-18.1c0.2,2.3,1,4.1,2.3,5.4c1.4,1.3,3,2,5,2
		c2.9,0,5.2-1.2,6.9-3.4l3.3,3.2c-1.1,1.6-2.6,3-4.4,3.8C394.4,60.5,392.3,61,390,61z M389.3,37.3c-1.7,0-3.1,0.6-4.1,1.8
		c-1.1,1.2-1.7,2.9-2,5H395v-0.4c-0.1-2.1-0.7-3.6-1.6-4.7C392.3,37.8,391,37.3,389.3,37.3z"/>
</g>
</svg>
