<?xml version="1.0" encoding="utf-8"?>
<!-- Generator: Adobe Illustrator 27.5.0, SVG Export Plug-In . SVG Version: 6.00 Build 0)  -->
<svg version="1.1" id="Layer_1" xmlns="http://www.w3.org/2000/svg" xmlns:xlink="http://www.w3.org/1999/xlink" x="0px" y="0px"
	 viewBox="0 0 131.9 94.3" style="enable-background:new 0 0 131.9 94.3;" xml:space="preserve">
<style type="text/css">
	.st0{fill:#143D8E;}
	.st1{fill:#147DC8;}
</style>
<g>
	<path class="st0" d="M44.1,86.3L2.6,44.8L44.1,3.3l41.5,41.5L44.1,86.3z M9.7,44.8l34.5,34.5l34.5-34.5L44.1,10.3L9.7,44.8z"/>
	<path class="st0" d="M86,86.3L44.5,44.8L86,3.3l41.5,41.5L86,86.3z M51.5,44.8L86,79.3l34.5-34.5L86,10.3L51.5,44.8z"/>
	<g>
		<path class="st1" d="M64.9,46.2c-1.3,1.3-2.6,2.7-4.6,2.7c-2.1,0-3.6-1.5-3.6-3.7c0-2,1.6-3.7,3.8-3.7c1.8,0,3.2,1.5,4.4,2.7
			c1.3-1.3,2.6-2.7,4.6-2.7c2.1,0,3.6,1.5,3.6,3.7c0,2-1.6,3.7-3.8,3.7C67.5,48.9,66.1,47.4,64.9,46.2z M63.9,45.2
			c-1-0.9-2-2.2-3.4-2.2c-1.2,0-2.2,1-2.2,2.2c0,1.3,0.9,2.2,2.1,2.2C61.8,47.4,63,46.2,63.9,45.2z M71.5,45.2
			c0-1.3-0.9-2.2-2.1-2.2c-1.4,0-2.6,1.2-3.5,2.2c1,0.9,2,2.2,3.4,2.2C70.6,47.4,71.5,46.4,71.5,45.2z"/>
	</g>
	<path class="st1" d="M201.6,62.5c-0.8,8.2-3.8,14.6-9.1,19.2s-12.3,6.9-21,6.9c-6.1,0-11.5-1.5-16.2-4.4s-8.3-7-10.8-12.4
		c-2.5-5.3-3.8-11.5-4-18.6V46c0-7.2,1.3-13.6,3.8-19.1c2.6-5.5,6.2-9.8,11-12.8s10.3-4.5,16.6-4.5c8.5,0,15.3,2.3,20.5,6.9
		c5.2,4.6,8.2,11.1,9,19.5h-13.3c-0.6-5.5-2.2-9.5-4.8-11.9c-2.6-2.4-6.4-3.7-11.4-3.7c-5.8,0-10.3,2.1-13.4,6.4s-4.7,10.5-4.8,18.7
		v6.8c0,8.3,1.5,14.6,4.5,19s7.3,6.5,13.1,6.5c5.2,0,9.2-1.2,11.8-3.5c2.6-2.4,4.3-6.3,5-11.8C188.1,62.5,201.6,62.5,201.6,62.5z"/>
	<path class="st1" d="M225.9,87.5h-12.8v-81h12.8V87.5z"/>
	<path class="st1" d="M237.5,58.4c0-5.6,1.1-10.6,3.3-15.1s5.3-7.9,9.3-10.3s8.6-3.6,13.8-3.6c7.7,0,13.9,2.5,18.7,7.4
		s7.4,11.5,7.8,19.7l0.1,3c0,5.6-1.1,10.7-3.2,15.1s-5.3,7.9-9.3,10.3s-8.7,3.6-13.9,3.6c-8.1,0-14.5-2.7-19.3-8
		c-4.8-5.4-7.3-12.5-7.3-21.4L237.5,58.4L237.5,58.4z M250.3,59.5c0,5.9,1.2,10.5,3.6,13.8s5.8,5,10.1,5s7.7-1.7,10.1-5.1
		s3.6-8.3,3.6-14.8c0-5.8-1.2-10.3-3.7-13.7s-5.8-5.1-10.1-5.1c-4.2,0-7.5,1.7-10,5C251.5,48,250.3,52.9,250.3,59.5z"/>
	<path class="st1" d="M335.9,81.9c-3.8,4.4-9.1,6.6-16,6.6c-6.2,0-10.9-1.8-14.1-5.4s-4.8-8.9-4.8-15.7v-37h12.8v36.8
		c0,7.2,3,10.9,9,10.9c6.2,0,10.4-2.2,12.6-6.7v-41h12.8v57.1h-12.1L335.9,81.9z"/>
	<path class="st1" d="M359,58.5c0-8.8,2-15.8,6.1-21.2c4.1-5.3,9.5-8,16.4-8c6,0,10.9,2.1,14.7,6.3V6.4H409v81h-11.6l-0.6-5.9
		c-3.8,4.6-8.9,7-15.3,7c-6.7,0-12.1-2.7-16.2-8.1C361,75.1,359,67.8,359,58.5z M371.8,59.6c0,5.8,1.1,10.3,3.3,13.6
		c2.2,3.3,5.4,4.9,9.5,4.9c5.2,0,9.1-2.3,11.5-7V46.7c-2.4-4.6-6.2-6.9-11.4-6.9c-4.1,0-7.3,1.6-9.6,4.9
		C372.9,48.1,371.8,53,371.8,59.6z"/>
	<path class="st1" d="M482.2,62.5c-0.8,8.2-3.8,14.6-9.1,19.2s-12.3,6.9-21,6.9c-6.1,0-11.5-1.5-16.2-4.4s-8.3-7-10.8-12.4
		c-2.5-5.3-3.8-11.5-4-18.6V46c0-7.2,1.3-13.6,3.8-19.1c2.6-5.5,6.2-9.8,11-12.8s10.3-4.5,16.6-4.5c8.5,0,15.3,2.3,20.5,6.9
		s8.2,11.1,9,19.5h-13.3c-0.6-5.5-2.2-9.5-4.8-11.9s-6.4-3.7-11.4-3.7c-5.8,0-10.3,2.1-13.4,6.4s-4.7,10.5-4.8,18.7v6.8
		c0,8.3,1.5,14.6,4.5,19s7.3,6.5,13.1,6.5c5.2,0,9.2-1.2,11.8-3.5c2.6-2.4,4.3-6.3,5-11.8C468.7,62.5,482.2,62.5,482.2,62.5z"/>
	<path class="st1" d="M522.7,42.1c-1.7-0.3-3.4-0.4-5.2-0.4c-5.9,0-9.8,2.3-11.9,6.8v39h-12.8V30.4h12.3l0.3,6.4
		c3.1-5,7.4-7.4,12.9-7.4c1.8,0,3.3,0.2,4.5,0.7L522.7,42.1z"/>
	<path class="st1" d="M563.3,87.5c-0.6-1.1-1.1-2.9-1.5-5.3c-4.1,4.3-9.1,6.4-15,6.4c-5.7,0-10.4-1.6-14-4.9s-5.4-7.3-5.4-12.1
		c0-6.1,2.3-10.7,6.8-14s11-4.9,19.4-4.9h7.9v-3.8c0-3-0.8-5.3-2.5-7.1c-1.7-1.8-4.2-2.7-7.5-2.7c-2.9,0-5.3,0.7-7.2,2.2
		s-2.8,3.3-2.8,5.6h-12.8c0-3.1,1-6.1,3.1-8.8s4.9-4.9,8.5-6.4c3.6-1.5,7.5-2.3,11.9-2.3c6.7,0,12,1.7,16,5c4,3.4,6,8.1,6.1,14.2
		v25.7c0,5.1,0.7,9.2,2.2,12.3v0.9L563.3,87.5L563.3,87.5z M549.2,78.2c2.5,0,4.9-0.6,7.1-1.8c2.2-1.2,3.9-2.9,5-5V60.6h-6.9
		c-4.7,0-8.3,0.8-10.7,2.5c-2.4,1.7-3.6,4-3.6,7c0,2.5,0.8,4.4,2.5,5.9C544.3,77.5,546.5,78.2,549.2,78.2z"/>
	<path class="st1" d="M603.7,16.5v13.9h10.1v9.5h-10.1v31.9c0,2.2,0.4,3.8,1.3,4.7c0.9,1,2.4,1.5,4.6,1.5c1.5,0,3-0.2,4.5-0.5v9.9
		c-2.9,0.8-5.7,1.2-8.4,1.2c-9.8,0-14.8-5.4-14.8-16.3V39.9h-9.4v-9.5h9.4V16.5H603.7z"/>
	<path class="st1" d="M648.7,88.5c-8.1,0-14.7-2.6-19.7-7.7s-7.6-11.9-7.6-20.4v-1.6c0-5.7,1.1-10.8,3.3-15.3
		c2.2-4.5,5.3-8,9.3-10.5s8.4-3.7,13.3-3.7c7.8,0,13.8,2.5,18,7.4c4.2,5,6.4,12,6.4,21v5.2h-37.3c0.4,4.7,2,8.4,4.7,11.2
		c2.8,2.7,6.2,4.1,10.4,4.1c5.9,0,10.7-2.4,14.3-7.1l6.9,6.6c-2.3,3.4-5.3,6.1-9.1,7.9C657.7,87.6,653.4,88.5,648.7,88.5z
		 M647.2,39.6c-3.5,0-6.4,1.2-8.5,3.7c-2.2,2.5-3.5,5.9-4.1,10.3H659v-0.9c-0.3-4.3-1.4-7.5-3.4-9.7
		C653.5,40.7,650.7,39.6,647.2,39.6z"/>
</g>
</svg>
