<?xml version="1.0" encoding="utf-8"?>
<!-- Generator: Adobe Illustrator 27.5.0, SVG Export Plug-In . SVG Version: 6.00 Build 0)  -->
<svg version="1.1" id="Layer_1" xmlns="http://www.w3.org/2000/svg" xmlns:xlink="http://www.w3.org/1999/xlink" x="0px" y="0px"
	 viewBox="0 0 2707.7 1525" style="enable-background:new 0 0 2707.7 1525;" xml:space="preserve">
<style type="text/css">
	.st0{fill:#217B9E;}
	.st1{fill:none;}
	.st2{opacity:0.25;fill:#CECECE;}
	.st3{fill:#35CCDB;}
	.st4{fill:url(#SVGID_1_);}
	.st5{fill:url(#SVGID_00000148641545098216010380000000722358279706868123_);}
	.st6{fill:#6EE7ED;}
	.st7{fill:#919191;}
	.st8{filter:url(#Adobe_OpacityMaskFilter);}
	.st9{filter:url(#Adobe_OpacityMaskFilter_00000121979431937912466720000005340814004123871387_);}
	
		.st10{mask:url(#SVGID_00000176728927660561670310000013713159606341644959_);fill:url(#SVGID_00000080910669441916905380000001735106585725769143_);}
	.st11{fill:url(#SVGID_00000009583731481758527450000000996731524988956075_);}
	.st12{fill:#A8E8EF;}
	.st13{fill:url(#SVGID_00000170985413559097678450000011838322093408482987_);}
	.st14{fill:url(#SVGID_00000149345735313104955460000004035014082729231796_);}
	.st15{fill:#7CE3E8;}
	.st16{opacity:0.5;fill:url(#SVGID_00000110442026747617259380000005499289905704083334_);}
	.st17{opacity:0.5;fill:url(#SVGID_00000079453420381187351410000010183495915856445073_);}
	.st18{fill:#AFAFAF;}
	.st19{fill:url(#SVGID_00000036949128190515973020000005124431481364830653_);}
	.st20{fill:#082947;}
	.st21{fill:#1CCBF3;}
	.st22{fill:url(#SVGID_00000095298534136922187900000004153730060343403945_);}
	.st23{fill:#FFFFFF;}
	.st24{fill:#0E90A5;}
	.st25{fill:#3CCDE5;}
	.st26{opacity:0.5;fill:#828282;}
	.st27{opacity:0.5;fill:#BCBCBC;}
	.st28{fill:#A4E9F4;}
	.st29{fill:#9E9E9E;}
	.st30{fill:#828282;}
	.st31{fill:#BCBCBC;}
	.st32{fill:#C9C9C9;}
	.st33{fill:#8BE9F2;}
	.st34{fill:#ADADAD;}
	.st35{fill:#364950;}
	.st36{fill:#FE6D41;}
	.st37{opacity:0.5;}
	.st38{fill:#F5F5F5;}
	.st39{opacity:0;}
	.st40{opacity:0.25;}
	.st41{opacity:0.75;}
	.st42{fill:#A4EBF7;}
	.st43{fill:#CBF3F7;}
	.st44{fill:#69DAED;}
	.st45{fill:url(#SVGID_00000140693762673270037260000017275569789720727220_);}
	.st46{fill:url(#SVGID_00000124149872775057468980000009027903184339209359_);}
	.st47{fill:url(#SVGID_00000021120416579939875530000010081203314734917310_);}
	.st48{fill:url(#SVGID_00000106827962825393911010000007209921537412603782_);}
	.st49{fill:url(#SVGID_00000065041463420791276880000004578975270807496348_);}
	.st50{fill:url(#SVGID_00000124128392555546337510000012814803853349939637_);}
	.st51{fill:url(#SVGID_00000005964084468472951820000004204766971247008676_);}
	.st52{fill:#0B3D59;}
	.st53{fill:#F4AD7D;}
	.st54{fill:url(#SVGID_00000023248386651934739000000017761739333242397093_);}
	.st55{fill:url(#SVGID_00000067233273044334778630000005416034903254367153_);}
	.st56{fill:#5CB8EA;}
	.st57{fill:url(#SVGID_00000003826562471782557460000010645439848746239164_);}
	.st58{fill:url(#SVGID_00000092431332405725542590000017222602025310781606_);}
	.st59{fill:url(#SVGID_00000159440422109314432530000013678821327442285484_);}
	.st60{fill:#0F1C29;}
	.st61{fill:url(#SVGID_00000103225712407032737700000015712577650631990457_);}
	.st62{fill:url(#SVGID_00000013151939043389622620000005799006986439270332_);}
	.st63{fill:url(#SVGID_00000034795351608355736340000002691335167139565211_);}
	.st64{fill:url(#SVGID_00000092440082097502588520000003389989648607445892_);}
	.st65{fill:url(#SVGID_00000124138996849359783050000009241417414135154323_);}
	.st66{fill:url(#SVGID_00000141418065544118490860000013871538085178070671_);}
	.st67{fill:url(#SVGID_00000111149885309269252130000001607106620234516884_);}
	.st68{fill:url(#SVGID_00000060002806734425708090000001773289197622262714_);}
	.st69{fill:url(#SVGID_00000175302432985716237250000011709617429153172385_);}
	.st70{fill:#0F1B29;}
	.st71{fill:url(#SVGID_00000144296222084763583170000002703021722003813276_);}
	.st72{fill:url(#SVGID_00000156548112839893883910000011737807029090518674_);}
	.st73{fill:#F4AA74;}
	.st74{fill:#101B29;}
	.st75{fill:url(#SVGID_00000067229189062529362220000014109359449927884204_);}
	.st76{fill:url(#SVGID_00000062180982386539573720000015787352843286831513_);}
	.st77{fill:url(#SVGID_00000129916287810343208940000002868876714470229151_);}
	.st78{fill:url(#SVGID_00000062185852003454840530000007398479027370120346_);}
	.st79{fill:url(#SVGID_00000124870466370324974410000017539374723872631445_);}
	.st80{fill:url(#SVGID_00000065047651564525932230000007261710431581864126_);}
	.st81{filter:url(#Adobe_OpacityMaskFilter_00000125596316544502681130000007890716818651109011_);}
	.st82{filter:url(#Adobe_OpacityMaskFilter_00000039831169145185838230000002047419929418353803_);}
	
		.st83{mask:url(#SVGID_00000128479206032848452840000017970702968308069272_);fill:url(#SVGID_00000179626683655993081320000017487653045486350243_);}
	.st84{fill:url(#SVGID_00000163758017385141326850000014761180415084156289_);}
	.st85{filter:url(#Adobe_OpacityMaskFilter_00000142869128745910946960000010189926417776071866_);}
	.st86{filter:url(#Adobe_OpacityMaskFilter_00000149350537474275419330000003327144163268691591_);}
	
		.st87{mask:url(#SVGID_00000077322801957690634620000005331465212664883116_);fill:url(#SVGID_00000158748190925378049450000016497505635094602407_);}
	.st88{fill:url(#SVGID_00000063611491696100934350000008223684374993640376_);}
	.st89{filter:url(#Adobe_OpacityMaskFilter_00000011718517307254142070000012252159114076526758_);}
	.st90{filter:url(#Adobe_OpacityMaskFilter_00000011008019585293925340000011796409301823270822_);}
	
		.st91{mask:url(#SVGID_00000041285924358646850800000013666609491406677915_);fill:url(#SVGID_00000132779892404922906910000013763610719377003450_);}
	.st92{fill:url(#SVGID_00000075162687910040328350000012673593239342544815_);}
	.st93{filter:url(#Adobe_OpacityMaskFilter_00000136398084001573371900000002410967950245898673_);}
	.st94{filter:url(#Adobe_OpacityMaskFilter_00000111172170470334293540000002998530761113728171_);}
	
		.st95{mask:url(#SVGID_00000130618529901851718950000015594235185653999246_);fill:url(#SVGID_00000123414589301251089260000009638030757516997272_);}
	.st96{fill:url(#SVGID_00000109743112272728455860000007052032701263672224_);}
	.st97{fill:url(#SVGID_00000131350911728076554480000013561326446623000461_);}
</style>
<rect x="-6.7" y="-120.9" class="st0" width="2793.8" height="1814.9"/>
<g>
	<g>
		<g>
			<g>
				<rect x="388.1" y="-16.6" class="st1" width="1900" height="1500"/>
			</g>
			<path class="st2" d="M2246.3,1403.9c0-11-9-20-20-20H449.9c-11,0-20,9-20,20l0,0c0,11,9,20,20,20h1776.4
				C2237.3,1423.9,2246.3,1414.9,2246.3,1403.9L2246.3,1403.9z"/>
		</g>
		<g>
			<g>
				<path class="st3" d="M2129.9,1343.6c31.4,3.8,24.4,24.9,21.5,30c2.4-3.8,12.2-13.7,21.1-7.1c8.2,6.2-1.6,18.4-1.6,18.4
					c4.7-2.6,32.1-11.2,36.4,18.9h-137.8C2069.4,1403.9,2087.3,1338.5,2129.9,1343.6z"/>
			</g>
			<g>
				
					<linearGradient id="SVGID_1_" gradientUnits="userSpaceOnUse" x1="3250.8645" y1="1273.2512" x2="3165.3113" y2="1468.0757" gradientTransform="matrix(1 0 0 1 -1151.6777 0)">
					<stop  offset="0" style="stop-color:#FCBE14"/>
					<stop  offset="1" style="stop-color:#FD890C"/>
				</linearGradient>
				<path class="st4" d="M2101,1385.4c-3.5,6.5-7.5,12.7-11.9,18.5h-99c35.8-7.2,64.1-35.9,70.3-72.5c1.4-8.3,4.5-16.1,9-23
					c5.5-8.1,11.6-12.9,18.4-14.1l0.1,0c1.1-0.2,2.2-0.3,3.3-0.3c7.1,0.1,13.9,4.3,18.7,11.8c6.1,9.2,8.5,22.7,6.3,35.1
					C2113.7,1356.4,2108.6,1371.4,2101,1385.4z"/>
				
					<linearGradient id="SVGID_00000177486073200638254910000007238371269495219841_" gradientUnits="userSpaceOnUse" x1="3216.8833" y1="1413.6643" x2="3216.8833" y2="1303.4707" gradientTransform="matrix(1 0 0 1 -1151.6777 0)">
					<stop  offset="0" style="stop-color:#FFFFFF"/>
					<stop  offset="1" style="stop-color:#C1C1C1"/>
				</linearGradient>
				<path style="fill:url(#SVGID_00000177486073200638254910000007238371269495219841_);" d="M2052.9,1400.8
					c-1.1,1.1-2.3,2.1-3.5,3.2h3.5c0.6-0.5,1.1-1,1.7-1.5c0.1-0.1,0.3-0.2,0.5-0.2c0.6,0,1.2,0,1.8-0.1c9.2-0.4,18.6-1.8,27.8-4.4
					c0.6-0.2,0.9-1.2,0.8-1.8c-0.1-0.5-0.6-1.2-1.1-1.2c0,0,0,0,0,0c-0.1,0-0.2,0.4-0.3,0.4c-8.3,2.3-16.6,3.9-24.9,4.4
					c-0.4,0-0.7-0.1-0.8-0.4c-0.1-0.3-0.1-0.6,0.1-0.9c1-1.1,2.1-2.2,3.1-3.3c2.7-3,5.2-6.2,7.6-9.5c0.1-0.2,0.3-0.3,0.5-0.3
					c9.6-2,19.1-5.4,28.3-10c0.6-0.3,0.8-1,0.5-1.6c-0.2-0.4-0.6-0.7-1-0.7h0c-0.2,0-0.4,0.1-0.5,0.2c-7.7,3.8-15.6,6.8-23.7,8.9
					c-0.1,0-0.1,0-0.2,0c-0.3,0-0.5-0.1-0.7-0.3c-0.2-0.3-0.2-0.6,0-0.9c3-4.7,5.7-9.6,8.1-14.7c0.1-0.2,0.2-0.3,0.4-0.4
					c9.1-3.9,17.9-9,26-15.3c0.2-0.2,0.4-0.5,0.4-0.8c0-0.3-0.1-1.1-0.2-1.3c-0.2-0.3-0.6-0.9-0.9-0.9v0c-0.3,0-0.5,0.6-0.7,0.7
					c-6.8,5.3-14.1,10-21.6,13.5c-0.1,0-0.2,0.2-0.3,0.2c-0.2,0-0.4,0-0.6-0.2c-0.2-0.2-0.3-0.6-0.2-0.9c2.1-5.2,3.8-10.6,5.2-16.1
					c0.1-0.2,0.2-0.4,0.3-0.5c6.4-4.4,12.5-9.5,18-15.3c0.2-0.2,0.3-0.5,0.3-0.8c0-0.3-0.1-1-0.4-1.2c-0.2-0.2-0.5-0.8-0.8-0.8l0,0
					c-0.3,0-0.6,0.6-0.8,0.8c-4.4,4.6-9.2,9-14.2,12.7c-0.1,0.1-0.3,0.3-0.5,0.3c-0.2,0-0.3,0-0.5-0.1c-0.3-0.2-0.4-0.5-0.4-0.8
					c1.6-8.3,2.3-17.2,2.1-25.6c0-0.6-0.5-1.6-1.1-1.6h0c-0.4,0-0.6,0.6-0.8,0.8c-0.2,0.2-0.3,0.7-0.3,1c0.2,8.4-0.5,16.8-2.1,25
					c-0.1,0.3-0.3,0.7-0.7,0.7c0,0-0.1,0-0.1,0c-0.3,0-0.6-0.1-0.7-0.4c-3.2-5.2-6.9-10.5-10.8-14.9c-0.3-0.3-0.7-0.8-0.9-0.8v0
					c-0.3,0-0.5,0.5-0.7,0.7c-0.2,0.2-0.3,0.7-0.4,1c0,0.3,0.1,0.7,0.3,0.9c4.7,5.3,9,11.3,12.6,17.8c0.1,0.2,0.1,0.4,0.1,0.6
					c-1.3,5.3-3,10.6-5.1,15.7c-0.1,0.3-0.4,0.5-0.7,0.5c-0.4,0-0.7-0.2-0.8-0.5c-2.9-7.5-6.6-14.6-11-21c-0.2-0.3-0.6-0.6-0.9-0.5
					l0,0c-0.3,0-0.5,0.1-0.6,0.3c-0.5,0.4-0.7,1.1-0.3,1.6c5,7.3,9.1,15.5,12.1,24.3c0.1,0.2,0.1,0.4,0,0.6
					c-2.3,4.9-4.9,9.7-7.9,14.3c-0.1,0.2-0.4,0.4-0.7,0.4c-0.1,0-0.1,0-0.2,0c-0.3-0.1-0.6-0.3-0.6-0.6c-1.5-7.9-3.8-15.4-6.9-22.4
					c-0.2-0.4-0.6-0.7-1-0.6h0c-0.2,0-0.3,0-0.5,0.1c-0.3,0.1-0.5,0.3-0.6,0.6c-0.1,0.3-0.1,0.6,0,0.9c3.5,8.1,6,16.8,7.4,25.9
					c0,0.2,0,0.4-0.2,0.6c-3.1,4.4-6.6,8.6-10.4,12.5c-0.1,0.2-0.3,0.2-0.6,0.3c-0.1,0-0.2,0-0.3-0.1c-0.3-0.1-0.5-0.4-0.5-0.8
					c0-8-0.9-16.2-2.6-23.6c-0.1-0.5-0.6-1.2-1.1-1.2h0c-0.1,0-0.2,0.3-0.2,0.3c-0.6,0.1-1,0.9-0.8,1.5c2,8.6,2.8,17.7,2.5,26.9
					C2053.1,1400.4,2053,1400.6,2052.9,1400.8z M2037.8,1403.9h2.3c0.8-5.8,1-11.6,0.8-17.2c0-0.6-0.5-1.3-1.1-1.3l0,0
					c-0.3,0-0.6,0.4-0.8,0.6c-0.2,0.2-0.3,0.6-0.3,0.9C2038.8,1392.5,2038.5,1398.2,2037.8,1403.9z M2023,1403.9h2.3
					c0.4-1.8,0.7-3.5,1-5.3c0-0.3,0-0.6-0.2-0.8c-0.2-0.2-0.5-0.6-0.7-0.6c-0.1,0-0.1-0.2-0.2-0.2l0,0c-0.6,0-1,0.6-1.1,1.1
					C2023.8,1400.1,2023.4,1402,2023,1403.9z"/>
			</g>
		</g>
		<g>
			<path class="st6" d="M1869.6,1403.9c4.6-3.8,6.8-9.2,5.3-12.5c-5.2-11.1-21.4-3-28,1c12.1-7.8,56.4-38.2,41.6-57.8
				c-17.1-22.6-45.2,5.4-45.2,5.4s10.9-11.2,19.4-27c8.5-15.8,1.2-44.9-22.5-38.6c-17.3,4.6-28.1,24.4-32.7,34.7
				c6.8-18.1,22.9-69.4-9.9-78.3c-40-10.9-58.9,63.8-58.9,63.8s-2.2-13.7-8.8-21.5c-6.7-7.8-25.3-14-38.8,7.9
				c-13.5,21.9-4,55.6-4,55.6s-8.2-15.8-21.6-20.9c-13.4-5.2-31,10.8-29,37.7c1.5,19.8,11,41.1,15.8,50.6H1869.6z"/>
			<path class="st7" d="M1815.7,1403.9c-2.8-1.9-6.1-1.6-6.1-1.6s25.5-12.4,19.8-23.8c-5.7-11.4-25.7-1.8-25.7-1.8
				s21.7-16.7,7.3-27.8c-14.4-11.1-35.3,9.3-35.3,9.3s16.8-25.5-6.8-30.9c-23.5-5.3-26,19-26,19s-12.2-20.1-29.6-4.6
				c-17.4,15.5-4.1,36.6-4.1,36.6s-22.3-13.7-32.5,2.1c-4.4,6.8-3.4,15.9-0.8,23.5H1815.7z"/>
			<defs>
				<filter id="Adobe_OpacityMaskFilter" filterUnits="userSpaceOnUse" x="1688.8" y="1340.1" width="126.7" height="63.8">
					<feFlood  style="flood-color:white;flood-opacity:1" result="back"/>
					<feBlend  in="SourceGraphic" in2="back" mode="normal"/>
				</filter>
			</defs>
			
				<mask maskUnits="userSpaceOnUse" x="1688.8" y="1340.1" width="126.7" height="63.8" id="SVGID_00000145027073957469438830000007922072519853373334_">
				<g class="st8">
					<defs>
						
							<filter id="Adobe_OpacityMaskFilter_00000059996229296812412470000013039575210783731118_" filterUnits="userSpaceOnUse" x="1688.8" y="1340.1" width="126.7" height="63.8">
							<feFlood  style="flood-color:white;flood-opacity:1" result="back"/>
							<feBlend  in="SourceGraphic" in2="back" mode="normal"/>
						</filter>
					</defs>
					
						<mask maskUnits="userSpaceOnUse" x="1688.8" y="1340.1" width="126.7" height="63.8" id="SVGID_00000145027073957469438830000007922072519853373334_">
						<g style="filter:url(#Adobe_OpacityMaskFilter_00000059996229296812412470000013039575210783731118_);">
						</g>
					</mask>
					
						<linearGradient id="SVGID_00000098206955924439830180000000455444108614874796_" gradientUnits="userSpaceOnUse" x1="1751.1732" y1="1275.5126" x2="1632.1379" y2="1418.733" gradientTransform="matrix(1 0 0 1 93.7891 0)">
						<stop  offset="0" style="stop-color:#808080"/>
						<stop  offset="1" style="stop-color:#1A1A1A"/>
					</linearGradient>
					
						<path style="mask:url(#SVGID_00000145027073957469438830000007922072519853373334_);fill:url(#SVGID_00000098206955924439830180000000455444108614874796_);" d="
						M1795.3,1364.2c0.6,0.3,1.4,0.2,2-0.2c1.9-1.5,3-2.2,3-2.2c0.9-0.6,1.1-1.8,0.5-2.6c-0.6-0.9-1.8-1.1-2.6-0.5
						c0,0-1.2,0.8-3.2,2.4c-0.8,0.6-1,1.8-0.3,2.7C1794.8,1363.9,1795,1364.1,1795.3,1364.2z M1790.7,1369.2
						c0.8-0.7,0.9-1.8,0.2-2.6c-0.7-0.8-1.9-1-2.7-0.3c-8,7.1-20.5,20.4-33.4,37.6h4.7C1771.5,1386.8,1783.1,1375.9,1790.7,1369.2z
						 M1815.4,1384.2c-0.4-1-1.5-1.4-2.5-1.1c-0.1,0-1.5,0.6-4,1.8c-1,0.4-1.4,1.6-0.9,2.5c0.2,0.4,0.5,0.7,0.9,0.9
						c0.5,0.2,1.1,0.2,1.6,0c2.4-1.1,3.8-1.7,3.8-1.7C1815.3,1386.3,1815.8,1385.2,1815.4,1384.2z M1762.3,1348.9
						c0.1,0,0.2,0.1,0.2,0.1c1,0.3,2.1-0.3,2.4-1.3c1-3.3,1.5-5.2,1.5-5.2c0.3-1-0.3-2.1-1.3-2.3c-1-0.3-2.1,0.3-2.3,1.3
						c0,0-0.5,1.8-1.5,5.1C1761,1347.5,1761.5,1348.5,1762.3,1348.9z M1800.5,1388.9c-6.5,3.4-15.2,9.3-24.3,15h6.5
						c7.3-3.8,14.1-8.8,19.5-11.7c0.9-0.5,1.3-1.6,0.8-2.6C1802.6,1388.8,1801.4,1388.4,1800.5,1388.9z M1700.6,1400.3
						c-0.8,0.6-1,1.7-0.3,2.5c0.3,0.4,0.7,1.1,1,1.1h4.7c-0.9,0-1.8-2.3-2.7-3.5C1702.6,1399.6,1701.4,1399.7,1700.6,1400.3z
						 M1760.4,1355.9c-1-0.3-2.1,0.1-2.4,1.1c-3.5,11.2-9.2,27.9-16.2,46.9h4c6.8-17.2,12.4-34.9,15.8-45.8
						C1762,1357.1,1761.4,1356.2,1760.4,1355.9z M1692,1388c-0.8-0.7-2-0.7-2.7,0.1c-0.7,0.8-0.7,2,0.1,2.7c0,0,1.5,1.4,3.8,3.9
						c0.2,0.2,0.4,0.3,0.6,0.4c0.7,0.3,1.5,0.2,2.1-0.3c0.8-0.7,0.8-1.9,0.1-2.7C1693.6,1389.6,1692.1,1388.1,1692,1388z
						 M1728.8,1358.2c-1.1-3.4-1.9-5.3-2-5.4c-0.4-1-1.5-1.4-2.5-1c-1,0.4-1.4,1.5-1,2.5c0,0,0.8,1.8,1.8,5c0.2,0.5,0.5,0.9,1,1.1
						c0.4,0.2,0.9,0.2,1.4,0.1C1728.6,1360.2,1729.1,1359.2,1728.8,1358.2z M1729.5,1367.9c-1,0.2-1.7,1-1.5,2.1
						c1.9,9.1,3.3,20.6,2.1,34h3.8c1.2-13.4-0.2-25.4-2.2-34.7C1731.6,1368.2,1730.6,1367.7,1729.5,1367.9z"/>
				</g>
			</mask>
			
				<linearGradient id="SVGID_00000036249612950844099030000012729661764605415563_" gradientUnits="userSpaceOnUse" x1="1751.1732" y1="1275.5126" x2="1632.1379" y2="1418.733" gradientTransform="matrix(1 0 0 1 93.7891 0)">
				<stop  offset="0" style="stop-color:#FFFFFF"/>
				<stop  offset="1" style="stop-color:#FFFFFF"/>
			</linearGradient>
			<path style="fill:url(#SVGID_00000036249612950844099030000012729661764605415563_);" d="M1795.3,1364.2c0.6,0.3,1.4,0.2,2-0.2
				c1.9-1.5,3-2.2,3-2.2c0.9-0.6,1.1-1.8,0.5-2.6c-0.6-0.9-1.8-1.1-2.6-0.5c0,0-1.2,0.8-3.2,2.4c-0.8,0.6-1,1.8-0.3,2.7
				C1794.8,1363.9,1795,1364.1,1795.3,1364.2z M1790.7,1369.2c0.8-0.7,0.9-1.8,0.2-2.6c-0.7-0.8-1.9-1-2.7-0.3
				c-8,7.1-20.5,20.4-33.4,37.6h4.7C1771.5,1386.8,1783.1,1375.9,1790.7,1369.2z M1815.4,1384.2c-0.4-1-1.5-1.4-2.5-1.1
				c-0.1,0-1.5,0.6-4,1.8c-1,0.4-1.4,1.6-0.9,2.5c0.2,0.4,0.5,0.7,0.9,0.9c0.5,0.2,1.1,0.2,1.6,0c2.4-1.1,3.8-1.7,3.8-1.7
				C1815.3,1386.3,1815.8,1385.2,1815.4,1384.2z M1762.3,1348.9c0.1,0,0.2,0.1,0.2,0.1c1,0.3,2.1-0.3,2.4-1.3c1-3.3,1.5-5.2,1.5-5.2
				c0.3-1-0.3-2.1-1.3-2.3c-1-0.3-2.1,0.3-2.3,1.3c0,0-0.5,1.8-1.5,5.1C1761,1347.5,1761.5,1348.5,1762.3,1348.9z M1800.5,1388.9
				c-6.5,3.4-15.2,9.3-24.3,15h6.5c7.3-3.8,14.1-8.8,19.5-11.7c0.9-0.5,1.3-1.6,0.8-2.6C1802.6,1388.8,1801.4,1388.4,1800.5,1388.9z
				 M1700.6,1400.3c-0.8,0.6-1,1.7-0.3,2.5c0.3,0.4,0.7,1.1,1,1.1h4.7c-0.9,0-1.8-2.3-2.7-3.5
				C1702.6,1399.6,1701.4,1399.7,1700.6,1400.3z M1760.4,1355.9c-1-0.3-2.1,0.1-2.4,1.1c-3.5,11.2-9.2,27.9-16.2,46.9h4
				c6.8-17.2,12.4-34.9,15.8-45.8C1762,1357.1,1761.4,1356.2,1760.4,1355.9z M1692,1388c-0.8-0.7-2-0.7-2.7,0.1
				c-0.7,0.8-0.7,2,0.1,2.7c0,0,1.5,1.4,3.8,3.9c0.2,0.2,0.4,0.3,0.6,0.4c0.7,0.3,1.5,0.2,2.1-0.3c0.8-0.7,0.8-1.9,0.1-2.7
				C1693.6,1389.6,1692.1,1388.1,1692,1388z M1728.8,1358.2c-1.1-3.4-1.9-5.3-2-5.4c-0.4-1-1.5-1.4-2.5-1c-1,0.4-1.4,1.5-1,2.5
				c0,0,0.8,1.8,1.8,5c0.2,0.5,0.5,0.9,1,1.1c0.4,0.2,0.9,0.2,1.4,0.1C1728.6,1360.2,1729.1,1359.2,1728.8,1358.2z M1729.5,1367.9
				c-1,0.2-1.7,1-1.5,2.1c1.9,9.1,3.3,20.6,2.1,34h3.8c1.2-13.4-0.2-25.4-2.2-34.7C1731.6,1368.2,1730.6,1367.7,1729.5,1367.9z"/>
		</g>
		<g>
			<path class="st12" d="M662.2,1344.4c-0.1,4.9,0.5,10.7,1.6,16.9H688c-0.2-7.8-0.2-15.1-0.2-20.9c-0.3-29-3.4-32-10.6-31.3
				C670.9,1310,662.9,1314.3,662.2,1344.4z M628.4,1315.6c-2.3,11.8-1.3,29.5,1.7,45.6h14.3c2.2-16,5.3-33.4,7.2-44.9
				c4.2-25.6,1.6-29.1-4.8-29.6C640.8,1286.5,633.5,1289.2,628.4,1315.6z M500.2,1276c-1.8,5.1,0,12.3,20.6,22.8
				c14,7.2,38.3,11.7,52,12.6c7,12.1,14.8,23.7,23.4,34.7c-16.3-5.3-39.3-15.6-54.4-21.3c-25.3-9.7-30.7-7.5-32-0.5
				c-1.2,6.4,2.3,15,28.7,24.1c18,6.2,47.4,7,63.8,5.2c2.2,2.6,4.5,5.1,6.8,7.6h8.8c-3.7-3.8-7.4-7.6-10.9-11.6
				c3.8-16.2,12.8-42.1,17.3-57c6.6-22,4.5-25.6-1-26.9c-5.1-1-11.7,0.7-19,23.1c-4.4,13.4-5.3,36.6-3.3,53.5
				c-8.7-10.6-16.7-21.8-23.8-33.5c5.4-12.7,16.3-33.2,21.8-45.4c8-17.8,6.5-21.3,2.1-23.2c-4.2-1.6-9.7-0.8-18.3,17.2
				c-5.2,10.9-8.8,30.3-9.5,44.6c-5.8-10.1-11-20.6-15.6-31.4c5.8-9.5,16.9-25.1,22.5-34.7c8.1-13.9,7.1-17.2,3.7-19.2
				c-3.3-1.8-7.8-1.6-16.3,12.5c-5.2,8.6-10.1,24.2-12.3,35.6c-3.2-8.2-6.1-16.4-8.7-24.9c5.7-7.3,16.3-19.7,21.8-27.4
				c7.8-11.3,7.2-14.2,4.5-16.2c-2.6-1.8-6.3-1.9-14.4,9.4c-5,7-10.4,19.9-13.2,29.3c-1.7-6.2-3.2-12.4-4.5-18.7
				c4.8-5.2,13.6-14.2,18.1-20c6.4-8.4,6-10.8,4.1-12.5c-1.9-1.6-4.7-1.7-11.4,6.7c-4.1,5.2-8.8,15-11.5,22
				c-0.8-4.3-1.6-8.5-2.2-12.8c0.3-9,1.6-25.1,1.5-34.7c-0.2-13.8-2.4-16.3-5.5-16.4c-3-0.1-5.9,2.3-5.6,16.7
				c0.1,10.7,4.7,28.2,7.7,36.2c0.5,3.9,1.1,7.7,1.7,11.5c-5.1-5.5-12.4-14-17.6-18.9c-8.4-7.8-11-7.5-12.6-5.1
				c-1.6,2.3-1.6,5.7,7,13.5c6,5.4,17.4,11.5,23.8,14.4c1.2,6.4,2.6,12.7,4.2,18.9c-7.2-6.6-17.5-17.1-24.6-23.1
				c-11.6-9.7-15-9.3-16.9-6c-2,3.1-1.6,7.8,10.3,17.4c8.2,6.7,23.7,13.6,32.5,16.6c2.4,8.6,5.1,17.1,8.2,25.4
				c-9.5-6.8-22.8-18-31.7-24.3c-14.8-10.4-18.8-9.6-20.8-5.4c-1.9,3.9-1.1,9.7,14.3,19.9c10.6,7,29.7,13.3,40.5,15.6
				c4.4,11.1,9.4,21.8,15.1,32.3c-12.7-6.7-30.6-18.1-42.4-24.6C506.8,1269.1,502.1,1270.5,500.2,1276z"/>
			<g>
				
					<linearGradient id="SVGID_00000152250822155793662930000005036606634244880532_" gradientUnits="userSpaceOnUse" x1="556.3293" y1="1277.224" x2="792.902" y2="1536.6594">
					<stop  offset="0" style="stop-color:#0BC9D8"/>
					<stop  offset="1" style="stop-color:#0878B2"/>
				</linearGradient>
				<path style="fill:url(#SVGID_00000152250822155793662930000005036606634244880532_);" d="M594.1,1403.6H681
					c23.5-16.8,25.6-46.4,14-48c-11.6-1.7-9.4-8.7-5.8-21.2c3.6-12.5-8.9-15.3-26.3-15.3c-17.4,0-9.4-25-32.1-26
					c-22.7-1-18.1,25.1-28.7,41.5c-10.6,16.4-42.9,3.4-44.6,28.5C555.8,1388.1,594.1,1403.6,594.1,1403.6z"/>
				
					<linearGradient id="SVGID_00000132087881928736589830000000918199436503666316_" gradientUnits="userSpaceOnUse" x1="631.5859" y1="1401.6454" x2="631.5859" y2="1342.7412">
					<stop  offset="0" style="stop-color:#FFFFFF"/>
					<stop  offset="1" style="stop-color:#C1C1C1"/>
				</linearGradient>
				<path style="fill:url(#SVGID_00000132087881928736589830000000918199436503666316_);" d="M627.3,1341.1
					C627.3,1341.1,627.3,1341.1,627.3,1341.1c1,0,1.8-0.7,1.8-1.7c0-2.3-0.1-3.7-0.1-3.7c0-1-0.8-1.8-1.8-1.8c0,0,0,0,0,0
					c-1,0-1.8,1-1.8,1.9c0,0,0,1.3,0.1,3.6C625.5,1340.4,626.3,1341.1,627.3,1341.1z M629.4,1348.9c0-1-0.9-1.7-1.8-1.7
					c-1,0-1.7,0.4-1.7,1.4c0.7,17,2.4,40.6,6.7,55h3.6c0,0,0,0.1-0.1-0.1C631.5,1388.1,629.9,1362.8,629.4,1348.9z M594.8,1366.2
					c-0.9-0.5-1.9-0.2-2.4,0.7c-0.5,0.9-0.2,1.5,0.7,2c10.8,6,24.3,17.9,27.4,34.7h3.6c0,0,0,0.2,0,0.1
					C620.8,1384,606.4,1372.6,594.8,1366.2z M585.7,1361.8c-3.7-1.5-6.1-2.1-6.2-2.2c-1-0.3-1.9,0.3-2.2,1.3
					c-0.3,0.9,0.3,1.9,1.3,2.2c0,0,2.3,0.6,5.8,2c0.2,0.1,0.4,0.1,0.7,0.1c0.7,0,1.4-0.4,1.7-1.1
					C587,1363.2,586.6,1362.2,585.7,1361.8z M662.2,1344.8c0.4,0,0.8-0.1,1.2-0.4c1.9-1.7,3.3-2.4,3.3-2.4c0.9-0.5,1.2-1.5,0.8-2.4
					c-0.5-0.9-1.5-1.2-2.4-0.8c-0.1,0-1.7,0.9-4,2.9c-0.7,0.6-0.8,1.8-0.2,2.5C661.2,1344.6,661.7,1344.8,662.2,1344.8z M658.2,1350
					c0.6-0.8,0.4-1.9-0.4-2.5c-0.8-0.6-1.9-0.8-2.5-0.1c-6.7,9-14.3,27.4-12.2,56.2h3.6c0,0,0,0.4,0,0.3
					C644.7,1374.5,651.9,1358.5,658.2,1350z M685.9,1370c-0.1-1-1-1.7-2-1.6c-0.1,0-1.7,0.2-4.2,1c-0.9,0.3-1.4,1.3-1.2,2.2
					c0.2,0.8,0.9,1.2,1.7,1.2c0.2,0,0.4,0,0.5-0.1c2.1-0.7,3.4-0.8,3.5-0.8C685.3,1371.9,686,1371,685.9,1370z M671.5,1373.4
					c-6.7,4.3-15.2,12.8-18.1,30.4c0,0.1,0-0.1,0-0.1h3.6c2.7-14.4,10.4-23.7,16.4-27.7c0.8-0.5,1.1-1.4,0.5-2.2
					C673.4,1372.9,672.3,1372.9,671.5,1373.4z"/>
			</g>
			<g>
				<path class="st15" d="M726.1,1336.9c-21-11.4-38.3-12.6-51.3-10c-26.9-34.4,11.3-50.6,23.2-48.9v0
					C699.3,1294.4,706.9,1314.1,726.1,1336.9z"/>
				
					<linearGradient id="SVGID_00000089573381908683014600000010846722568608496791_" gradientUnits="userSpaceOnUse" x1="7128.5957" y1="-1329.2289" x2="7112.3179" y2="-1291.0249" gradientTransform="matrix(-0.8712 0.491 0.491 0.8712 7536.9126 -1049.366)">
					<stop  offset="0" style="stop-color:#B5B5B5"/>
					<stop  offset="1" style="stop-color:#4F4F4F"/>
				</linearGradient>
				<path style="opacity:0.5;fill:url(#SVGID_00000089573381908683014600000010846722568608496791_);" d="M726.1,1336.9
					c-21-11.4-38.3-12.6-51.3-10c-26.9-34.4,11.3-50.6,23.2-48.9v0C699.3,1294.4,706.9,1314.1,726.1,1336.9z"/>
				<path class="st15" d="M856.3,1275.9c-10.6-21-24.1-35-38.3-44.2h0c0,0,1.5-21.3,29-18.9c22.7,2,27.4,25.2,27.4,25.2
					C868,1244.2,854.1,1259.6,856.3,1275.9z"/>
				
					<linearGradient id="SVGID_00000081608867738036777910000015910549655816284313_" gradientUnits="userSpaceOnUse" x1="6944.5278" y1="-1314.3053" x2="6954.4951" y2="-1278.6725" gradientTransform="matrix(-0.8712 0.491 0.491 0.8712 7536.9126 -1049.366)">
					<stop  offset="0" style="stop-color:#B5B5B5"/>
					<stop  offset="1" style="stop-color:#4F4F4F"/>
				</linearGradient>
				<path style="opacity:0.5;fill:url(#SVGID_00000081608867738036777910000015910549655816284313_);" d="M856.3,1275.9
					c-10.6-21-24.1-35-38.3-44.2h0c0,0,1.5-21.3,29-18.9c22.7,2,27.4,25.2,27.4,25.2C868,1244.2,854.1,1259.6,856.3,1275.9z"/>
				<path class="st15" d="M661.9,1403.9c-17.9-31.9-15.1-62.8-15.1-62.8s29.3-31.5,79.3-4.2c-63.3-75.3-0.4-116.7-0.4-116.7
					s88-28.7,130.7,55.7c-2.8-21.3,21.4-40.8,21.4-40.8s35.8-7.1,65.2,61.2c23.1,53.7-2.2,93.2-14.1,107.6H661.9z"/>
				<path class="st18" d="M716.8,1403.9c-15.3-16.9-20.8-30.8-20.8-30.8s47.1-20.7,95.1,7.1c-37.1-58-15.5-84.8-15.5-84.8
					s48.5,1.5,77.2,62.2c2.9-38.9,33.5-53.5,33.5-53.5s21.9,8.4,29.5,52.4c3.4,19.8,0.6,36.3-2.8,47.4H716.8z"/>
				
					<linearGradient id="SVGID_00000104701977926952520070000017619367239234937228_" gradientUnits="userSpaceOnUse" x1="5627.3501" y1="1458.7048" x2="5627.3501" y2="1287.7727" gradientTransform="matrix(-1 0 0 1 6440.5938 0)">
					<stop  offset="0" style="stop-color:#FFFFFF"/>
					<stop  offset="1" style="stop-color:#C1C1C1"/>
				</linearGradient>
				<path style="fill:url(#SVGID_00000104701977926952520070000017619367239234937228_);" d="M797.5,1399.1l0.9,4.9h4.1l-1-5.6
					c-0.2-1.1-1.2-1.8-2.3-1.6C798,1396.9,797.3,1398,797.5,1399.1z M718,1386.2c0.3,0.2,10.6,6.1,27.1,14.4
					c0.2,0.1,0.4,0.2,0.6,0.3c2,1,4,2,6.2,3.1h9.1c-4.6-2.2-8.9-4.3-12.9-6.3l-2.4-20.6c-0.1-1.1-1.1-1.9-2.2-1.8
					c-1.1,0.1-1.9,1.1-1.7,2.2l2.1,18c-14.5-7.4-23.6-12.6-23.8-12.8c-0.9-0.5-2.2-0.2-2.7,0.7C716.7,1384.4,717,1385.6,718,1386.2z
					 M861.3,1370.4c-0.8,0.7-1,2-0.3,2.8l17.3,20.8c-0.5,3.3-1,6.6-1.6,10h4c0.6-3.3,1.1-6.6,1.6-9.9c0.1-0.2,0.1-0.5,0.1-0.7
					c1.4-9.5,2.4-18.6,3.1-27l22.9-11.8c0,0,0,0,0.1,0c0.9-0.5,1.3-1.7,0.8-2.6c-0.5-1-1.7-1.4-2.7-0.9l-20.7,10.7
					c1.7-20.7,1.7-35.6,1.7-35.9c0-1.1-0.9-2-2-2c-1.1,0-2,0.9-2,2c0,0.5-0.1,29.4-4.7,62.9l-14.9-18
					C863.4,1369.8,862.1,1369.7,861.3,1370.4z M788,1314.5c0.3,0.4,11.4,18.4,26,42.2l-21-0.4c-1.1,0-2,0.9-2,2c0,1.1,0.9,2,2,2
					l23.6,0.4c8.3,13.5,17.4,28.6,26.3,43.2h4.7c-3.3-5.6-6.8-11.2-10.1-16.8l7.2-23.4c0.3-1.1-0.3-2.2-1.3-2.5
					c-1.1-0.3-2.2,0.3-2.5,1.3l-6.1,20c-5.2-8.6-10.4-17-15.2-24.9c0,0,0-0.1-0.1-0.1c-4.4-7.2-8.5-13.9-12.2-19.8l5.5-17.3
					c0.3-1-0.2-2.2-1.3-2.5c-1-0.3-2.2,0.2-2.5,1.3l-4.5,14c-7.7-12.5-12.7-20.6-12.9-20.9c-0.6-0.9-1.8-1.2-2.7-0.6
					C787.7,1312.4,787.4,1313.6,788,1314.5z"/>
			</g>
		</g>
		<g>
			<g>
				
					<image style="overflow:visible;" width="892" height="620" xlink:href="DAECB520.png"  transform="matrix(1 0 0 1 863.3809 784.5111)">
				</image>
				<path class="st20" d="M1715,1349.5V835c0-5.4-4.4-9.9-9.9-9.9H913.5c-5.4,0-9.9,4.4-9.9,9.9v514.5H1715z"/>
				<rect x="914.6" y="836.1" class="st21" width="789.4" height="513.3"/>
				<g>
					<g>
						<path class="st20" d="M1789.8,1394.1c0,5.4-4.4,9.9-9.9,9.9H838.7c-5.4,0-9.9-4.4-9.9-9.9v-34.7c0-5.4,4.4-9.9,9.9-9.9h941.2
							c5.4,0,9.9,4.4,9.9,9.9V1394.1z"/>
					</g>
				</g>
				
					<linearGradient id="SVGID_00000176014827237502479230000009875595799253886869_" gradientUnits="userSpaceOnUse" x1="1309.2931" y1="1415.7181" x2="1309.2931" y2="1349.4055">
					<stop  offset="0" style="stop-color:#FFFFFF"/>
					<stop  offset="1" style="stop-color:#BABABA"/>
				</linearGradient>
				<path style="fill:url(#SVGID_00000176014827237502479230000009875595799253886869_);" d="M1377.7,1373.2h-136.8
					c-5.4,0-9.9,4.4-9.9,9.9v20.9h156.6V1383C1387.6,1377.6,1383.1,1373.2,1377.7,1373.2z"/>
				<g>
					<rect x="947.3" y="866.6" class="st23" width="551.7" height="336.4"/>
					<rect x="947.3" y="866.6" class="st24" width="551.7" height="36.4"/>
					<g>
						<g>
							<g>
								<path class="st20" d="M1006.1,926.7c0-2.8-2.2-5-5-5H976c-2.8,0-5,2.2-5,5v4.4c0,2.8,2.2,5,5,5h25.2c2.8,0,5-2.2,5-5V926.7z
									"/>
							</g>
							<g>
								<path class="st20" d="M1192.8,926.7c0-2.8-2.2-5-5-5h-168.4c-2.8,0-5,2.2-5,5v4.4c0,2.8,2.2,5,5,5h168.4c2.8,0,5-2.2,5-5
									V926.7z"/>
							</g>
						</g>
						<g>
							<g>
								<path class="st25" d="M1109.6,1143.9c0,2.8,2.2,5,5,5h110.1c2.8,0,5-2.2,5-5v-4.4c0-2.8-2.2-5-5-5h-110.1c-2.8,0-5,2.2-5,5
									V1143.9z"/>
							</g>
							<g>
								<path class="st25" d="M1000.7,1143.9c0,2.8,2.2,5,5,5h90.6c2.8,0,5-2.2,5-5v-4.4c0-2.8-2.2-5-5-5h-90.6c-2.8,0-5,2.2-5,5
									V1143.9z"/>
							</g>
						</g>
						<g>
							<g>
								<path class="st25" d="M1073.9,1108.4c0,2.8,2.2,5,5,5h63.9c2.8,0,5-2.2,5-5v-4.4c0-2.8-2.2-5-5-5h-63.9c-2.8,0-5,2.2-5,5
									V1108.4z"/>
							</g>
							<g>
								<path class="st25" d="M1161,1099c-2.8,0-5,2.2-5,5v4.4c0,2.8,2.2,5,5,5h129.9c2.8,0,5-2.2,5-5v-4.4c0-2.8-2.2-5-5-5H1161z"
									/>
							</g>
							<g>
								<path class="st25" d="M1065.7,1104c0-2.8-2.2-5-5-5h-23c-2.8,0-5,2.2-5,5v4.4c0,2.8,2.2,5,5,5h23c2.8,0,5-2.2,5-5V1104z"/>
							</g>
						</g>
						<g>
							<g>
								<path class="st25" d="M1012.2,1179.3c0,2.8,2.2,5,5,5h63.9c2.8,0,5-2.2,5-5v-4.4c0-2.8-2.2-5-5-5h-63.9c-2.8,0-5,2.2-5,5
									V1179.3z"/>
							</g>
							<g>
								<path class="st25" d="M1099.3,1170c-2.8,0-5,2.2-5,5v4.4c0,2.8,2.2,5,5,5h129.9c2.8,0,5-2.2,5-5v-4.4c0-2.8-2.2-5-5-5
									H1099.3z"/>
							</g>
							<g>
								<path class="st25" d="M1004,1175c0-2.8-2.2-5-5-5h-23c-2.8,0-5,2.2-5,5v4.4c0,2.8,2.2,5,5,5h23c2.8,0,5-2.2,5-5V1175z"/>
							</g>
						</g>
						<g>
							<g>
								<path class="st20" d="M1244.3,962.2c0-2.8-2.2-5-5-5h-19.8c-2.8,0-5,2.2-5,5v4.4c0,2.8,2.2,5,5,5h19.8c2.8,0,5-2.2,5-5
									V962.2z"/>
							</g>
							<g>
								<path class="st20" d="M1206.3,962.2c0-2.8-2.2-5-5-5h-129.9c-2.8,0-5,2.2-5,5v4.4c0,2.8,2.2,5,5,5h129.9c2.8,0,5-2.2,5-5
									V962.2z"/>
							</g>
							<g>
								<path class="st20" d="M1058.2,962.2c0-2.8-2.2-5-5-5h-70.8c-2.8,0-5,2.2-5,5v4.4c0,2.8,2.2,5,5,5h70.8c2.8,0,5-2.2,5-5
									V962.2z"/>
							</g>
						</g>
						<g>
							<g>
								<path class="st20" d="M1309.1,1033.1c0-2.8-2.2-5-5-5h-19.8c-2.8,0-5,2.2-5,5v4.4c0,2.8,2.2,5,5,5h19.8c2.8,0,5-2.2,5-5
									V1033.1z"/>
							</g>
							<g>
								<path class="st20" d="M1271.1,1033.1c0-2.8-2.2-5-5-5h-129.9c-2.8,0-5,2.2-5,5v4.4c0,2.8,2.2,5,5,5h129.9c2.8,0,5-2.2,5-5
									V1033.1z"/>
							</g>
							<g>
								<path class="st20" d="M1123,1033.1c0-2.8-2.2-5-5-5h-70.8c-2.8,0-5,2.2-5,5v4.4c0,2.8,2.2,5,5,5h70.8c2.8,0,5-2.2,5-5
									V1033.1z"/>
							</g>
						</g>
						<g>
							<g>
								<path class="st25" d="M1095,1007c2.8,0,5-2.2,5-5v-4.4c0-2.8-2.2-5-5-5h-30c-2.8,0-5,2.2-5,5v4.4c0,2.8,2.2,5,5,5H1095z"/>
							</g>
							<g>
								<path class="st25" d="M1257.7,997.6c0-2.8-2.2-5-5-5h-139.5c-2.8,0-5,2.2-5,5v4.4c0,2.8,2.2,5,5,5h139.5c2.8,0,5-2.2,5-5
									V997.6z"/>
							</g>
							<g>
								<path class="st25" d="M1051.7,997.6c0-2.8-2.2-5-5-5h-13c-2.8,0-5,2.2-5,5v4.4c0,2.8,2.2,5,5,5h13c2.8,0,5-2.2,5-5V997.6z"
									/>
							</g>
						</g>
						<g>
							<g>
								<path class="st25" d="M1170.7,1068.6c0-2.8-2.2-5-5-5h-16c-2.8,0-5,2.2-5,5v4.4c0,2.8,2.2,5,5,5h16c2.8,0,5-2.2,5-5V1068.6z
									"/>
							</g>
							<g>
								<path class="st25" d="M1136.4,1068.6c0-2.8-2.2-5-5-5H976c-2.8,0-5,2.2-5,5v4.4c0,2.8,2.2,5,5,5h155.4c2.8,0,5-2.2,5-5
									V1068.6z"/>
							</g>
						</g>
					</g>
					<path class="st23" d="M1483.5,884.8c0-4.5-3.7-8.2-8.2-8.2c-4.5,0-8.2,3.7-8.2,8.2c0,4.5,3.7,8.2,8.2,8.2
						C1479.8,893,1483.5,889.4,1483.5,884.8z"/>
					<path class="st26" d="M1439.5,884.8c0-4.5-3.7-8.2-8.2-8.2c-4.5,0-8.2,3.7-8.2,8.2c0,4.5,3.7,8.2,8.2,8.2
						C1435.8,893,1439.5,889.4,1439.5,884.8z"/>
					<path class="st27" d="M1395.4,884.8c0-4.5-3.7-8.2-8.2-8.2c-4.5,0-8.2,3.7-8.2,8.2c0,4.5,3.7,8.2,8.2,8.2
						C1391.8,893,1395.4,889.4,1395.4,884.8z"/>
				</g>
				<g>
					
						<image style="overflow:visible;" width="501" height="377" xlink:href="DAECB527.png"  transform="matrix(1 0 0 1 1184.381 960.5111)">
					</image>
					<path class="st28" d="M1665,1305.2c0,6.5-5.3,11.8-11.8,11.8h-436.6c-6.5,0-11.8-5.3-11.8-11.8V992.5c0-6.5,5.3-11.8,11.8-11.8
						h436.6c6.5,0,11.8,5.3,11.8,11.8V1305.2z"/>
					<path class="st29" d="M1653.1,980.7h-436.6c-6.5,0-11.8,5.3-11.8,11.8v24.6H1665v-24.6C1665,986,1659.7,980.7,1653.1,980.7z"/>
					<path class="st23" d="M1649.4,998.9c0-4.5-3.7-8.2-8.2-8.2c-4.5,0-8.2,3.7-8.2,8.2c0,4.5,3.7,8.2,8.2,8.2
						C1645.7,1007.1,1649.4,1003.4,1649.4,998.9z"/>
					<path class="st30" d="M1605.4,998.9c0-4.5-3.7-8.2-8.2-8.2c-4.5,0-8.2,3.7-8.2,8.2c0,4.5,3.7,8.2,8.2,8.2
						C1601.7,1007.1,1605.4,1003.4,1605.4,998.9z"/>
					<path class="st31" d="M1561.4,998.9c0-4.5-3.7-8.2-8.2-8.2c-4.5,0-8.2,3.7-8.2,8.2c0,4.5,3.7,8.2,8.2,8.2
						C1557.7,1007.1,1561.4,1003.4,1561.4,998.9z"/>
					<path class="st32" d="M1590.6,1017.1h-2.8v22.6h-74.4v-22.6h-2.8v22.6h-74.4v-22.6h-2.8v22.6h-74.4v-22.6h-2.8v22.6h-74.4
						v-22.6h-2.8v22.6h-74.4v2.8h74.4v22.6h-74.4v2.8h74.4v22.6h-74.4v2.8h74.4v22.6h-74.4v2.8h74.4v22.6h-74.4v2.8h74.4v22.6h-74.4
						v2.8h74.4v22.6h-74.4v2.8h74.4v22.6h-74.4v2.8h74.4v22.6h-74.4v2.8h74.4v22.6h-74.4v2.8h74.4v22.6h-74.4v2.8h74.4v20h2.8v-20
						h74.4v20h2.8v-20h74.4v20h2.8v-20h74.4v20h2.8v-20h74.4v20h2.8v-20h74.4v-2.8h-74.4v-22.6h74.4v-2.8h-74.4v-22.6h74.4v-2.8
						h-74.4v-22.6h74.4v-2.8h-74.4v-22.6h74.4v-2.8h-74.4v-22.6h74.4v-2.8h-74.4v-22.6h74.4v-2.8h-74.4v-22.6h74.4v-2.8h-74.4v-22.6
						h74.4v-2.8h-74.4V1068h74.4v-2.8h-74.4v-22.6h74.4v-2.8h-74.4V1017.1z M1356.2,1294.3h-74.4v-22.6h74.4V1294.3z M1356.2,1268.8
						h-74.4v-22.6h74.4V1268.8z M1356.2,1243.3h-74.4v-22.6h74.4V1243.3z M1356.2,1217.9h-74.4v-22.6h74.4V1217.9z M1356.2,1192.4
						h-74.4v-22.6h74.4V1192.4z M1356.2,1167h-74.4v-22.6h74.4V1167z M1356.2,1141.5h-74.4v-22.6h74.4V1141.5z M1356.2,1116.1h-74.4
						v-22.6h74.4V1116.1z M1356.2,1090.6h-74.4V1068h74.4V1090.6z M1356.2,1065.2h-74.4v-22.6h74.4V1065.2z M1433.4,1294.3h-74.4
						v-22.6h74.4V1294.3z M1433.4,1268.8h-74.4v-22.6h74.4V1268.8z M1433.4,1243.3h-74.4v-22.6h74.4V1243.3z M1433.4,1217.9h-74.4
						v-22.6h74.4V1217.9z M1433.4,1192.4h-74.4v-22.6h74.4V1192.4z M1433.4,1167h-74.4v-22.6h74.4V1167z M1433.4,1141.5h-74.4v-22.6
						h74.4V1141.5z M1433.4,1116.1h-74.4v-22.6h74.4V1116.1z M1433.4,1090.6h-74.4V1068h74.4V1090.6z M1433.4,1065.2h-74.4v-22.6
						h74.4V1065.2z M1510.6,1294.3h-74.4v-22.6h74.4V1294.3z M1510.6,1268.8h-74.4v-22.6h74.4V1268.8z M1510.6,1243.3h-74.4v-22.6
						h74.4V1243.3z M1510.6,1217.9h-74.4v-22.6h74.4V1217.9z M1510.6,1192.4h-74.4v-22.6h74.4V1192.4z M1510.6,1167h-74.4v-22.6
						h74.4V1167z M1510.6,1141.5h-74.4v-22.6h74.4V1141.5z M1510.6,1116.1h-74.4v-22.6h74.4V1116.1z M1510.6,1090.6h-74.4V1068h74.4
						V1090.6z M1510.6,1065.2h-74.4v-22.6h74.4V1065.2z M1587.8,1294.3h-74.4v-22.6h74.4V1294.3z M1587.8,1268.8h-74.4v-22.6h74.4
						V1268.8z M1587.8,1243.3h-74.4v-22.6h74.4V1243.3z M1587.8,1217.9h-74.4v-22.6h74.4V1217.9z M1587.8,1192.4h-74.4v-22.6h74.4
						V1192.4z M1587.8,1167h-74.4v-22.6h74.4V1167z M1587.8,1141.5h-74.4v-22.6h74.4V1141.5z M1587.8,1116.1h-74.4v-22.6h74.4
						V1116.1z M1587.8,1090.6h-74.4V1068h74.4V1090.6z M1587.8,1065.2h-74.4v-22.6h74.4V1065.2z"/>
				</g>
				<g>
					<path class="st20" d="M1460.1,1175.9c0-0.9-0.8-1.7-1.7-1.7h-7.5c-0.9,0-1.7,0.8-1.7,1.7v36.2c0,0.9,0.8,1.7,1.7,1.7h7.5
						c0.9,0,1.7-0.8,1.7-1.7V1175.9z"/>
					<path class="st20" d="M1436.5,1188.6c-0.9,0-1.7,0.8-1.7,1.7v7.5c0,0.9,0.8,1.7,1.7,1.7h36.2c0.9,0,1.7-0.8,1.7-1.7v-7.5
						c0-0.9-0.8-1.7-1.7-1.7H1436.5z"/>
				</g>
			</g>
			<g>
				<path class="st20" d="M1009.8,713.7c-12.5,0-22.7-10.2-22.7-22.7V387.6c0-12.5,10.2-22.7,22.7-22.7h382.9
					c12.5,0,22.7,10.2,22.7,22.7V691c0,12.5-10.2,22.7-22.7,22.7H1009.8z"/>
				<path class="st33" d="M1407.2,691c0,8-6.5,14.5-14.5,14.5h-382.9c-8,0-14.5-6.5-14.5-14.5V387.6c0-8,6.5-14.5,14.5-14.5h382.9
					c8,0,14.5,6.5,14.5,14.5V691z"/>
				<g>
					<path class="st34" d="M1387.6,395.9c0-4.7-3.8-8.5-8.5-8.5c-4.7,0-8.5,3.8-8.5,8.5s3.8,8.5,8.5,8.5
						C1383.9,404.4,1387.6,400.6,1387.6,395.9z"/>
					<path class="st34" d="M1342.4,395.9c0-4.7-3.8-8.5-8.5-8.5c-4.7,0-8.5,3.8-8.5,8.5s3.8,8.5,8.5,8.5
						C1338.6,404.4,1342.4,400.6,1342.4,395.9z"/>
					<path class="st34" d="M1297.1,395.9c0-4.7-3.8-8.5-8.5-8.5c-4.7,0-8.5,3.8-8.5,8.5s3.8,8.5,8.5,8.5
						C1293.3,404.4,1297.1,400.6,1297.1,395.9z"/>
				</g>
				<g>
					<g>
						<path class="st20" d="M1411.9,431.6h-234.4c-6.1,0-11.1-5-11.1-11.1v-15.7c0-1.6-1.3-2.9-2.9-2.9h-106.3
							c-1.6,0-2.9,1.3-2.9,2.9v15.7c0,6.1-5,11.1-11.1,11.1h-52.6v-8.2h52.6c1.6,0,2.9-1.3,2.9-2.9v-15.7c0-6.1,5-11.1,11.1-11.1
							h106.3c6.1,0,11.1,5,11.1,11.1v15.7c0,1.6,1.3,2.9,2.9,2.9h234.4V431.6z"/>
					</g>
					<g>
						<g>
							<path class="st20" d="M1155.8,421.4c-0.6,0-1.3-0.2-1.8-0.7l-10.5-10.5c-1-1-1-2.6,0-3.5c1-1,2.6-1,3.5,0l10.5,10.5
								c1,1,1,2.6,0,3.5C1157.1,421.2,1156.5,421.4,1155.8,421.4z"/>
						</g>
						<g>
							<path class="st20" d="M1145.3,421.4c-0.6,0-1.3-0.2-1.8-0.7c-1-1-1-2.6,0-3.5l10.5-10.5c1-1,2.6-1,3.5,0c1,1,1,2.6,0,3.5
								l-10.5,10.5C1146.6,421.2,1146,421.4,1145.3,421.4z"/>
						</g>
					</g>
				</g>
				<path class="st23" d="M1201.2,582.4c-22.2,0-42.3,9-56.8,23.6l19.9,19.9c9.5-9.4,22.5-15.3,36.9-15.3c14.4,0,27.4,5.9,36.9,15.3
					l19.9-19.9C1243.5,591.4,1223.4,582.4,1201.2,582.4z M1201.2,634.6c-7.8,0-14.8,3.1-19.9,8.2l19.9,19.9l19.9-19.9
					C1216,637.7,1209,634.6,1201.2,634.6z M1201.2,526.5c-37.6,0-71.6,15.3-96.2,39.9l19.9,19.9c19.6-19.6,46.6-31.7,76.4-31.7
					c29.8,0,56.8,12.1,76.3,31.7l19.9-19.9C1272.8,541.8,1238.8,526.5,1201.2,526.5z M1068.5,530l19.9,19.9
					c28.9-28.9,68.8-46.8,112.8-46.8c44,0,83.9,17.9,112.8,46.8l19.9-19.9c-34-34-80.9-55-132.7-55
					C1149.5,475,1102.5,496,1068.5,530z"/>
			</g>
			<g>
				<g>
					<path class="st35" d="M1962.6,1173.8v18.8h61.4v-18.8c0-3.8-3.1-6.9-6.9-6.9h-47.5C1965.7,1166.9,1962.6,1170,1962.6,1173.8z"
						/>
					<path class="st35" d="M2058.4,1391.2c0,7-5.7,12.7-12.7,12.7h-104.8c-7,0-12.7-5.7-12.7-12.7V1204c0-7,5.7-12.7,12.7-12.7
						h104.8c7,0,12.7,5.7,12.7,12.7V1391.2z"/>
					<path class="st36" d="M2045.7,1197.1c3.8,0,6.9,3.1,6.9,6.9v187.2c0,3.8-3.1,6.9-6.9,6.9h-104.8c-3.8,0-6.9-3.1-6.9-6.9V1204
						c0-3.8,3.1-6.9,6.9-6.9H2045.7z"/>
					<g class="st37">
						<path class="st38" d="M1933.9,1369.3v21.9c0,3.8,3.1,6.9,6.9,6.9h22.7c1.3,0,2.3-1,2.3-2.3c0-1.3-1-2.3-2.3-2.3h-22.7
							c-1.3,0-2.3-1.1-2.3-2.3v-21.9c0-1.3-1-2.3-2.3-2.3C1935,1367,1933.9,1368,1933.9,1369.3z"/>
						<path class="st38" d="M1971.3,1395.8c0,1.3,1,2.3,2.3,2.3h42c1.3,0,2.3-1,2.3-2.3c0-1.3-1-2.3-2.3-2.3h-42
							C1972.3,1393.5,1971.3,1394.6,1971.3,1395.8z"/>
						<path class="st38" d="M1936.2,1362.4c1.3,0,2.3-1,2.3-2.3v-14.5c0-1.3-1-2.3-2.3-2.3c-1.3,0-2.3,1-2.3,2.3v14.5
							C1933.9,1361.3,1935,1362.4,1936.2,1362.4z"/>
						<path class="st38" d="M1936.2,1338.6c1.3,0,2.3-1,2.3-2.3v-2.1c0-1.3-1-2.3-2.3-2.3c-1.3,0-2.3,1-2.3,2.3v2.1
							C1933.9,1337.6,1935,1338.6,1936.2,1338.6z"/>
						<path class="st38" d="M2022.4,1395.8c0,1.3,1,2.3,2.3,2.3h2.4c1.3,0,2.3-1,2.3-2.3c0-1.3-1-2.3-2.3-2.3h-2.4
							C2023.4,1393.5,2022.4,1394.6,2022.4,1395.8z"/>
					</g>
					<g>
						<g class="st39">
							<g>
								<rect x="1944.3" y="1207.5" class="st35" width="97.9" height="27.7"/>
								<g class="st37">
									<path class="st18" d="M1947.5,1228.7c0,1.3,1,2.3,2.3,2.3h62.4c1.3,0,2.3-1,2.3-2.3c0-1.3-1-2.3-2.3-2.3h-62.4
										C1948.5,1226.4,1947.5,1227.4,1947.5,1228.7z"/>
									<path class="st18" d="M2017.7,1228.7c0,1.3,1,2.3,2.3,2.3h8.2c1.3,0,2.3-1,2.3-2.3c0-1.3-1-2.3-2.3-2.3h-8.2
										C2018.8,1226.4,2017.7,1227.4,2017.7,1228.7z"/>
								</g>
							</g>
						</g>
						<g>
							<rect x="1944.3" y="1360" class="st35" width="97.9" height="27.7"/>
							<g class="st37">
								<path class="st18" d="M1947.5,1381.2c0,1.3,1,2.3,2.3,2.3h62.4c1.3,0,2.3-1,2.3-2.3c0-1.3-1-2.3-2.3-2.3h-62.4
									C1948.5,1378.9,1947.5,1380,1947.5,1381.2z"/>
								<path class="st18" d="M2017.7,1381.2c0,1.3,1,2.3,2.3,2.3h8.2c1.3,0,2.3-1,2.3-2.3c0-1.3-1-2.3-2.3-2.3h-8.2
									C2018.8,1378.9,2017.7,1380,2017.7,1381.2z"/>
							</g>
						</g>
						<g class="st40">
							<rect x="1944.3" y="1245.6" class="st35" width="97.9" height="27.7"/>
							<g class="st37">
								<path class="st18" d="M1947.5,1266.8c0,1.3,1,2.3,2.3,2.3h62.4c1.3,0,2.3-1,2.3-2.3c0-1.3-1-2.3-2.3-2.3h-62.4
									C1948.5,1264.5,1947.5,1265.6,1947.5,1266.8z"/>
								<path class="st18" d="M2017.7,1266.8c0,1.3,1,2.3,2.3,2.3h8.2c1.3,0,2.3-1,2.3-2.3c0-1.3-1-2.3-2.3-2.3h-8.2
									C2018.8,1264.5,2017.7,1265.6,2017.7,1266.8z"/>
							</g>
						</g>
						<g class="st37">
							<rect x="1944.3" y="1283.7" class="st35" width="97.9" height="27.7"/>
							<g class="st37">
								<path class="st18" d="M1947.5,1305c0,1.3,1,2.3,2.3,2.3h62.4c1.3,0,2.3-1,2.3-2.3c0-1.3-1-2.3-2.3-2.3h-62.4
									C1948.5,1302.7,1947.5,1303.7,1947.5,1305z"/>
								<path class="st18" d="M2017.7,1305c0,1.3,1,2.3,2.3,2.3h8.2c1.3,0,2.3-1,2.3-2.3c0-1.3-1-2.3-2.3-2.3h-8.2
									C2018.8,1302.7,2017.7,1303.7,2017.7,1305z"/>
							</g>
						</g>
						<g class="st41">
							<rect x="1944.3" y="1321.9" class="st35" width="97.9" height="27.7"/>
							<g class="st37">
								<path class="st18" d="M1947.5,1343.1c0,1.3,1,2.3,2.3,2.3h62.4c1.3,0,2.3-1,2.3-2.3c0-1.3-1-2.3-2.3-2.3h-62.4
									C1948.5,1340.8,1947.5,1341.8,1947.5,1343.1z"/>
								<path class="st18" d="M2017.7,1343.1c0,1.3,1,2.3,2.3,2.3h8.2c1.3,0,2.3-1,2.3-2.3c0-1.3-1-2.3-2.3-2.3h-8.2
									C2018.8,1340.8,2017.7,1341.8,2017.7,1343.1z"/>
							</g>
						</g>
					</g>
				</g>
				<g>
					<g>
						<path class="st21" d="M1981.9,983c11.1,11.1,10,30.1,10,30.1s-19,1.1-30.1-10c-11.1-11.1-9.9-30.1-9.9-30.1
							S1970.8,971.9,1981.9,983z"/>
						<g class="st37">
							<path class="st38" d="M1969,1000.8c-0.5,0-1-0.2-1.4-0.5c-0.6-0.5-1.3-1.1-1.8-1.6c-3.7-3.7-6.3-8.9-7.6-15.6
								c-0.3-1.2,0.6-2.5,1.8-2.7c1.3-0.3,2.5,0.6,2.7,1.8c1.2,5.7,3.3,10.2,6.4,13.2c0.5,0.5,1,0.9,1.5,1.3c1,0.8,1.2,2.3,0.4,3.2
								C1970.3,1000.5,1969.7,1000.8,1969,1000.8z"/>
						</g>
						<g class="st37">
							<path class="st38" d="M1979.7,1005.8c-0.2,0-0.4,0-0.6-0.1c-2.1-0.6-4.2-1.3-6-2.1c-1.2-0.5-1.7-1.9-1.1-3.1
								c0.5-1.2,1.9-1.7,3.1-1.1c1.6,0.7,3.3,1.3,5.2,1.8c1.2,0.3,2,1.6,1.7,2.8C1981.7,1005.1,1980.7,1005.8,1979.7,1005.8z"/>
						</g>
						<path class="st35" d="M1990.3,1016c-4.7,0-20.6-0.8-30.7-10.8c-11.8-11.8-10.8-31.5-10.8-32.3l0.1-2.6l2.6-0.2
							c0,0,0.6,0,1.6,0c4.7,0,20.6,0.8,30.7,10.8c11.8,11.8,10.8,31.5,10.8,32.3l-0.1,2.6l-2.6,0.2
							C1992,1016,1991.4,1016,1990.3,1016z M1954.7,975.9c0.2,5.4,1.5,17.5,9.1,25.2c7.7,7.7,19.9,8.9,25.2,9.1
							c-0.2-5.4-1.5-17.5-9.1-25.2C1972.1,977.3,1959.9,976.1,1954.7,975.9z"/>
					</g>
					<g>
						<path class="st21" d="M1981.9,1062.8c11.1,11.1,10,30.1,10,30.1s-19,1.1-30.1-10c-11.1-11.1-9.9-30.1-9.9-30.1
							S1970.8,1051.8,1981.9,1062.8z"/>
						<g class="st37">
							<path class="st38" d="M1969,1080.6c-0.5,0-1-0.2-1.4-0.5c-0.6-0.5-1.3-1.1-1.8-1.6c-3.7-3.7-6.3-8.9-7.6-15.6
								c-0.3-1.2,0.6-2.5,1.8-2.7c1.3-0.3,2.5,0.6,2.7,1.8c1.2,5.7,3.3,10.2,6.4,13.2c0.5,0.5,1,0.9,1.5,1.3c1,0.8,1.2,2.3,0.4,3.2
								C1970.3,1080.3,1969.7,1080.6,1969,1080.6z"/>
						</g>
						<g class="st37">
							<path class="st38" d="M1979.7,1085.7c-0.2,0-0.4,0-0.6-0.1c-2.1-0.6-4.2-1.3-6-2.1c-1.2-0.5-1.7-1.9-1.1-3.1
								c0.5-1.2,1.9-1.7,3.1-1.1c1.6,0.7,3.3,1.3,5.2,1.8c1.2,0.3,2,1.6,1.7,2.8C1981.7,1085,1980.7,1085.7,1979.7,1085.7z"/>
						</g>
						<path class="st35" d="M1990.3,1095.8c-4.7,0-20.6-0.8-30.7-10.8c-11.8-11.8-10.8-31.5-10.8-32.3l0.1-2.6l2.6-0.2
							c0,0,0.6,0,1.6,0c4.7,0,20.6,0.8,30.7,10.8c11.8,11.8,10.8,31.5,10.8,32.3l-0.1,2.6l-2.6,0.2
							C1992,1095.8,1991.4,1095.8,1990.3,1095.8z M1954.7,1055.7c0.2,5.4,1.5,17.5,9.1,25.2c7.7,7.7,19.9,8.9,25.2,9.1
							c-0.2-5.4-1.5-17.5-9.1-25.2C1972.1,1057.2,1959.9,1055.9,1954.7,1055.7z"/>
					</g>
					<g>
						<path class="st21" d="M2004.7,1022.9c-11.1,11.1-10,30.1-10,30.1s19,1.1,30.1-10c11.1-11.1,10-30.1,10-30.1
							S2015.8,1011.8,2004.7,1022.9z"/>
						<g>
							<g class="st37">
								<path class="st38" d="M2007.1,1031c0-0.5,0.2-1,0.5-1.4c0.5-0.6,1.1-1.3,1.6-1.8c3.7-3.7,8.9-6.3,15.6-7.6
									c1.3-0.3,2.5,0.6,2.7,1.8c0.3,1.3-0.6,2.5-1.8,2.7c-5.7,1.2-10.2,3.3-13.2,6.4c-0.5,0.5-0.9,1-1.3,1.5
									c-0.8,1-2.3,1.2-3.2,0.4C2007.4,1032.3,2007.1,1031.6,2007.1,1031z"/>
							</g>
							<g class="st37">
								<path class="st38" d="M2002,1041.7c0-0.2,0-0.4,0.1-0.6c0.6-2.1,1.3-4.2,2.1-6c0.5-1.2,1.9-1.7,3.1-1.1
									c1.2,0.5,1.7,1.9,1.1,3.1c-0.7,1.6-1.3,3.3-1.8,5.2c-0.3,1.2-1.6,2-2.8,1.7C2002.7,1043.6,2002,1042.7,2002,1041.7z"/>
							</g>
						</g>
						<path class="st35" d="M1994.6,1055.9l-2.6-0.2l-0.2-2.6c0-0.8-1-20.5,10.8-32.3c10-10,26-10.8,30.7-10.8c1,0,1.6,0,1.6,0
							l2.6,0.2l0.1,2.6c0,0.8,1,20.5-10.8,32.3c-10,10.1-26,10.8-30.7,10.8C1995.2,1055.9,1994.6,1055.9,1994.6,1055.9z
							 M2006.8,1024.9c-7.6,7.6-8.9,19.8-9.1,25.2c5.3-0.2,17.5-1.4,25.2-9.1c7.6-7.6,8.9-19.8,9.1-25.2
							C2026.6,1016,2014.4,1017.3,2006.8,1024.9z"/>
					</g>
					<g>
						<path class="st21" d="M2004.7,1102.7c-11.1,11.1-10,30.1-10,30.1s19,1.1,30.1-10c11.1-11.1,10-30.1,10-30.1
							S2015.8,1091.7,2004.7,1102.7z"/>
						<g>
							<g class="st37">
								<path class="st38" d="M2007.1,1110.8c0-0.5,0.2-1,0.5-1.4c0.5-0.6,1.1-1.3,1.6-1.8c3.7-3.7,8.9-6.3,15.6-7.6
									c1.3-0.3,2.5,0.6,2.7,1.8c0.3,1.3-0.6,2.5-1.8,2.7c-5.7,1.2-10.2,3.3-13.2,6.4c-0.5,0.5-0.9,1-1.3,1.5
									c-0.8,1-2.3,1.2-3.2,0.4C2007.4,1112.2,2007.1,1111.5,2007.1,1110.8z"/>
							</g>
							<g class="st37">
								<path class="st38" d="M2002,1121.5c0-0.2,0-0.4,0.1-0.6c0.6-2.1,1.3-4.2,2.1-6c0.5-1.2,1.9-1.7,3.1-1.1
									c1.2,0.5,1.7,1.9,1.1,3.1c-0.7,1.6-1.3,3.3-1.8,5.2c-0.3,1.2-1.6,2-2.8,1.7C2002.7,1123.5,2002,1122.5,2002,1121.5z"/>
							</g>
						</g>
						<path class="st35" d="M1994.6,1135.7l-2.6-0.2l-0.2-2.6c0-0.8-1-20.5,10.8-32.3c10-10,26-10.8,30.7-10.8c1,0,1.6,0,1.6,0
							l2.6,0.2l0.1,2.6c0,0.8,1,20.5-10.8,32.3c-10,10.1-26,10.8-30.7,10.8C1995.2,1135.7,1994.6,1135.7,1994.6,1135.7z
							 M2006.8,1104.8c-7.6,7.6-8.9,19.8-9.1,25.2c5.3-0.2,17.5-1.4,25.2-9.1c7.6-7.6,8.9-19.8,9.1-25.2
							C2026.6,1095.8,2014.4,1097.1,2006.8,1104.8z"/>
					</g>
					<rect x="1988.9" y="1011.3" class="st35" width="5.8" height="162.9"/>
				</g>
			</g>
			<g>
				<g>
					<g>
						<path class="st20" d="M1695.7,743.8c-12.5,0-22.7-10.2-22.7-22.7V481.5c0-12.5,10.2-22.7,22.7-22.7h318.5
							c12.5,0,22.7,10.2,22.7,22.7v239.5c0,12.5-10.2,22.7-22.7,22.7H1695.7z"/>
						<path class="st21" d="M2028.7,721.1c0,8-6.5,14.5-14.5,14.5h-318.5c-8,0-14.5-6.5-14.5-14.5V481.5c0-8,6.5-14.5,14.5-14.5
							h318.5c8,0,14.5,6.5,14.5,14.5V721.1z"/>
						<g>
							<path class="st20" d="M2009.2,489.9c0-4.7-3.8-8.5-8.5-8.5c-4.7,0-8.5,3.8-8.5,8.5c0,4.7,3.8,8.5,8.5,8.5
								C2005.4,498.4,2009.2,494.6,2009.2,489.9z"/>
							<path class="st20" d="M1963.9,489.9c0-4.7-3.8-8.5-8.5-8.5c-4.7,0-8.5,3.8-8.5,8.5c0,4.7,3.8,8.5,8.5,8.5
								C1960.1,498.4,1963.9,494.6,1963.9,489.9z"/>
							<path class="st20" d="M1918.6,489.9c0-4.7-3.8-8.5-8.5-8.5c-4.7,0-8.5,3.8-8.5,8.5c0,4.7,3.8,8.5,8.5,8.5
								C1914.8,498.4,1918.6,494.6,1918.6,489.9z"/>
						</g>
						<g>
							<g>
								<g>
									<path class="st20" d="M1829.4,545.9l-8.5-13.7c-1.7-3.2-5.1-3.5-7.5-0.8l-11.2,11.7L1829.4,545.9z"/>
									<path class="st20" d="M1788.2,675.3l8.5,13.7c1.8,3.2,5.1,3.5,7.5,0.8l11.2-11.7L1788.2,675.3z"/>
								</g>
								<g>
									<path class="st20" d="M1806,542.7l-12.7-10c-2.7-2.4-6-1.6-7.3,1.8l-6.5,14.8L1806,542.7z"/>
									<path class="st20" d="M1811.6,678.5l12.7,10c2.7,2.4,6,1.6,7.3-1.8l6.5-14.8L1811.6,678.5z"/>
								</g>
								<g>
									<path class="st20" d="M1783,547.8l-15.3-5.1c-3.4-1.3-6.2,0.6-6.3,4.2l-1.1,16.1L1783,547.8z"/>
									<path class="st20" d="M1834.7,673.4l15.3,5.1c3.4,1.3,6.2-0.6,6.3-4.2l1.1-16.1L1834.7,673.4z"/>
								</g>
								<g>
									<path class="st20" d="M1763.1,560.4l-16.1,0.5c-3.6-0.1-5.6,2.7-4.4,6.1l4.5,15.5L1763.1,560.4z"/>
									<path class="st20" d="M1854.6,660.8l16.1-0.5c3.6,0.1,5.6-2.7,4.4-6.1l-4.5-15.5L1854.6,660.8z"/>
								</g>
								<g>
									<path class="st20" d="M1748.6,579.1l-15,6c-3.4,1.2-4.4,4.4-2.1,7.3l9.5,13L1748.6,579.1z"/>
									<path class="st20" d="M1869,642.1l15-6c3.4-1.2,4.4-4.4,2.1-7.2l-9.5-13L1869,642.1z"/>
								</g>
								<g>
									<path class="st20" d="M1741.5,601.6l-12.1,10.7c-2.8,2.3-2.6,5.7,0.5,7.5l13.4,9L1741.5,601.6z"/>
									<path class="st20" d="M1876.1,619.6l12-10.7c2.8-2.3,2.6-5.7-0.5-7.5l-13.4-9L1876.1,619.6z"/>
								</g>
								<g>
									<path class="st20" d="M1742.5,625.1l-7.7,14.2c-1.9,3.1-0.5,6.2,3.1,6.9l15.7,3.8L1742.5,625.1z"/>
									<path class="st20" d="M1875.2,596.1l7.7-14.2c1.9-3.1,0.5-6.2-3.1-6.9l-15.7-3.8L1875.2,596.1z"/>
								</g>
								<g>
									<path class="st20" d="M1751.5,647l-2.3,16c-0.7,3.6,1.7,6,5.2,5.4l16-1.8L1751.5,647z"/>
									<path class="st20" d="M1866.2,574.2l2.3-16c0.7-3.6-1.7-6-5.2-5.4l-16.1,1.8L1866.2,574.2z"/>
								</g>
								<g>
									<path class="st20" d="M1767.3,664.4l3.3,15.8c0.6,3.6,3.6,5.1,6.8,3.3l14.5-7.1L1767.3,664.4z"/>
									<path class="st20" d="M1850.3,556.8L1847,541c-0.6-3.6-3.6-5.1-6.8-3.3l-14.5,7.1L1850.3,556.8z"/>
								</g>
								<path class="st20" d="M1880.3,618.2c-4.2,39.2-39.3,67.6-78.5,63.5c-39.2-4.2-67.6-39.3-63.5-78.5
									c4.1-39.2,39.3-67.6,78.5-63.5C1856,543.8,1884.4,579,1880.3,618.2z"/>
								<path class="st23" d="M1845,614.4c-2.1,19.8-19.8,34.1-39.6,32c-19.8-2.1-34.1-19.8-32-39.6c2.1-19.8,19.8-34.1,39.6-32
									C1832.8,576.9,1847.1,594.7,1845,614.4z"/>
								<path class="st42" d="M1827.6,612.6c-1.1,10.1-10.2,17.5-20.3,16.4c-10.1-1.1-17.5-10.2-16.4-20.3
									c1.1-10.1,10.2-17.5,20.3-16.4C1821.3,593.3,1828.6,602.4,1827.6,612.6z"/>
							</g>
							<g>
								<g>
									<path class="st43" d="M1932.8,621.4l-7.4-7.9c-1.6-1.8-3.8-1.6-5,0.5l-5.8,9.2L1932.8,621.4z"/>
									<path class="st43" d="M1923.2,711.8l7.4,7.9c1.6,1.8,3.8,1.6,5-0.5l5.8-9.2L1923.2,711.8z"/>
								</g>
								<g>
									<path class="st43" d="M1917,622.5l-9.7-4.9c-2.1-1.2-4.2-0.2-4.6,2.2l-2.3,10.6L1917,622.5z"/>
									<path class="st43" d="M1938.9,710.7l9.7,4.9c2.1,1.2,4.2,0.2,4.6-2.2l2.3-10.6L1938.9,710.7z"/>
								</g>
								<g>
									<path class="st43" d="M1902.6,628.9l-10.7-1.3c-2.4-0.4-4,1.2-3.5,3.6l1.5,10.7L1902.6,628.9z"/>
									<path class="st43" d="M1953.4,704.3l10.7,1.3c2.4,0.4,4-1.2,3.5-3.6l-1.5-10.7L1953.4,704.3z"/>
								</g>
								<g>
									<path class="st43" d="M1891.2,639.8l-10.5,2.5c-2.4,0.4-3.3,2.5-2.1,4.6l5.1,9.6L1891.2,639.8z"/>
									<path class="st43" d="M1964.7,693.4l10.5-2.5c2.4-0.4,3.3-2.5,2.1-4.6l-5-9.6L1964.7,693.4z"/>
								</g>
								<g>
									<path class="st43" d="M1884.2,654l-9,5.9c-2.1,1.2-2.3,3.5-0.4,5l8,7.3L1884.2,654z"/>
									<path class="st43" d="M1971.7,679.2l9-5.9c2.1-1.2,2.3-3.5,0.4-5.1l-8-7.2L1971.7,679.2z"/>
								</g>
								<g>
									<path class="st43" d="M1882.6,669.7l-6.5,8.7c-1.6,1.9-0.9,4.1,1.4,4.9l10,4.1L1882.6,669.7z"/>
									<path class="st43" d="M1973.3,663.5l6.5-8.7c1.6-1.9,1-4.1-1.3-4.9l-10-4.1L1973.3,663.5z"/>
								</g>
								<g>
									<path class="st43" d="M1886.4,685.1l-3.1,10.3c-0.8,2.3,0.5,4.1,2.9,4.1l10.8,0.4L1886.4,685.1z"/>
									<path class="st43" d="M1969.5,648.2l3.1-10.4c0.8-2.3-0.5-4.1-2.9-4.1l-10.8-0.4L1969.5,648.2z"/>
								</g>
								<g>
									<path class="st43" d="M1895.2,698.2l0.6,10.8c0,2.4,1.9,3.7,4.2,2.9l10.3-3.3L1895.2,698.2z"/>
									<path class="st43" d="M1960.7,635l-0.6-10.8c0-2.4-1.9-3.7-4.2-2.9l-10.3,3.3L1960.7,635z"/>
								</g>
								<g>
									<path class="st43" d="M1908,707.5l4.3,9.9c0.8,2.3,3.1,2.9,4.9,1.3l8.5-6.6L1908,707.5z"/>
									<path class="st43" d="M1947.9,625.7l-4.3-9.9c-0.9-2.3-3.1-2.9-4.9-1.3l-8.5,6.6L1947.9,625.7z"/>
								</g>
								<path class="st43" d="M1975.9,662c2.5,26.3-16.7,49.6-43,52.2c-26.3,2.5-49.6-16.7-52.2-43c-2.6-26.3,16.7-49.6,42.9-52.2
									C1949.9,616.4,1973.3,635.7,1975.9,662z"/>
								<path class="st20" d="M1947.9,664.7c1.1,10.9-6.9,20.5-17.8,21.6c-10.9,1-20.5-6.9-21.6-17.8c-1-10.9,6.9-20.5,17.8-21.6
									C1937.2,645.9,1946.8,653.8,1947.9,664.7z"/>
								<g>
									<path class="st23" d="M1932.7,700.3c-0.4,0.1-0.8,0.1-1.2,0.1c-18.6,1.8-35.3-11.9-37.1-30.5
										c-1.8-18.7,11.7-35.3,30.5-37.1c18.6-1.8,35.3,11.9,37.1,30.5C1963.8,681.6,1950.9,697.8,1932.7,700.3z M1924,634.8
										c-17.2,2.3-29.3,17.6-27.7,34.8c1.7,17.6,17.4,30.5,35,28.8c17.7-1.7,30.5-17.3,28.8-35c-1.7-17.6-17.4-30.5-35-28.8
										C1924.7,634.7,1924.4,634.8,1924,634.8z"/>
								</g>
							</g>
						</g>
					</g>
					<g>
						<path class="st20" d="M2036.9,417.5c0,10-8.2,18.2-18.2,18.2h-327.5c-10,0-18.2-8.2-18.2-18.2l0,0c0-10,8.2-18.2,18.2-18.2
							h327.5C2028.7,399.3,2036.9,407.5,2036.9,417.5L2036.9,417.5z"/>
						<path class="st44" d="M1691.2,429.1c-6.4,0-11.6-5.2-11.6-11.6c0-6.4,5.2-11.6,11.6-11.6h327.5c6.4,0,11.6,5.2,11.6,11.6
							c0,6.4-5.2,11.6-11.6,11.6H1691.2z"/>
						<path class="st21" d="M1719.1,405.9l23.2,23.2h9.4l-23.2-23.2H1719.1z M1740.8,405.9l23.2,23.2h9.4l-23.2-23.2H1740.8z
							 M1806.1,405.9l23.2,23.2h9.4l-23.2-23.2H1806.1z M1784.3,405.9l23.2,23.2h9.4l-23.2-23.2H1784.3z M1762.6,405.9l23.2,23.2
							h9.4l-23.2-23.2H1762.6z M1681.3,411.6l17.5,17.5h9.4l-22-22C1684.1,408.1,1682.4,409.6,1681.3,411.6z M1697.4,405.9
							l23.2,23.2h9.4l-23.2-23.2H1697.4z M2011.1,405.9h-9.4l22,22c2-1,3.7-2.5,4.9-4.5L2011.1,405.9z M1914.7,405.9l23.2,23.2h9.4
							l-23.2-23.2H1914.7z M1936.5,405.9l23.2,23.2h9.4l-23.2-23.2H1936.5z M1980,405.9l23.2,23.2h9.4l-23.2-23.2H1980z
							 M1958.2,405.9l23.2,23.2h9.4l-23.2-23.2H1958.2z M1827.8,405.9l23.2,23.2h9.4l-23.2-23.2H1827.8z M1849.5,405.9l23.2,23.2
							h9.4l-23.2-23.2H1849.5z M1893,405.9l23.2,23.2h9.4l-23.2-23.2H1893z M1871.3,405.9l23.2,23.2h9.4l-23.2-23.2H1871.3z"/>
					</g>
				</g>
				<g>
					<path class="st20" d="M1725.9,377.7c-0.9,0-1.8-0.2-2.7-0.5c-15.5-6.4-25.6-21.3-25.7-38.1c-0.1-11,4.2-21.4,12-29.3
						c7.8-7.8,18.1-12.2,29.2-12.2l0.2,0c1.2,0,2.5,0.1,3.7,0.2c2.8-14.1,9.9-26.9,20.4-36.8c12.6-11.8,29-18.3,46.3-18.4
						c0.9,0,1.8,0,2.6,0.1c10.7-29.6,39-49.9,70.8-50.1l0.4,0c18.2,0,35.7,6.5,49.4,18.4c12.2,10.5,20.7,24.7,24.3,40.3
						c31.4,4.4,55.3,31.2,55.4,63.2c0.1,30.1-20.2,56-49.5,63c-0.5,0.1-1.1,0.2-1.6,0.2H1725.9z"/>
					<path class="st36" d="M1961.2,370.7c25.4-6,44.2-28.9,44.1-56.1c-0.1-30.6-24.2-55.2-54.3-56.8c-5.1-33.1-33.7-58.3-68.1-58.1
						c-31.6,0.1-58,21.6-65.9,50.7c-2.5-0.3-4.9-0.7-7.5-0.7c-32.2,0.2-58.2,25-60.9,56.5c-3.1-0.9-6.3-1.6-9.8-1.5
						c-19,0.1-34.3,15.5-34.2,34.5c0.1,14.3,8.9,26.5,21.3,31.6H1961.2z"/>
					
						<linearGradient id="SVGID_00000104666159151540557630000007909838580289612173_" gradientUnits="userSpaceOnUse" x1="1941.9921" y1="210.3842" x2="1941.9921" y2="428.8934">
						<stop  offset="0" style="stop-color:#FFFFFF"/>
						<stop  offset="1" style="stop-color:#C1C1C1"/>
					</linearGradient>
					<path style="fill:url(#SVGID_00000104666159151540557630000007909838580289612173_);" d="M1951,257.7
						c-5.1-33.1-33.7-58.3-68.1-58.1c-1.4,0-2.8,0.1-4.2,0.2c23.4,2.1,42.5,26.5,46,58c21.9,1.6,39.3,26.3,39.5,56.8
						c0.1,27.2-13.6,50.1-32,56.1h29.1c25.4-6,44.2-28.9,44.1-56.1C2005.2,284,1981.1,259.3,1951,257.7z"/>
				</g>
			</g>
			<g>
				<g>
					<path class="st35" d="M1526,763.8h-8V566.6c0-11.6-9.4-21-21-21h-63.6v-8h63.6c16,0,29,13,29,29V763.8z"/>
				</g>
				<g>
					<path class="st35" d="M1568.1,763.8h-8V631c0-16,13-29,29-29h63.6v8h-63.6c-11.6,0-21,9.4-21,21V763.8z"/>
				</g>
				<g>
					<path class="st35" d="M1910,1271.4h-42c-16,0-29-13-29-29V988c0-11.6-9.4-21-21-21h-29.2v-8h29.2c16,0,29,13,29,29v254.4
						c0,11.6,9.4,21,21,21h42V1271.4z"/>
				</g>
				<g>
					<path class="st36" d="M1788.7,887.9c0,1.1-0.9,2-2,2H1770c-1.1,0-2-0.9-2-2v-18c0-1.1,0.9-2,2-2h16.8c1.1,0,2,0.9,2,2V887.9z"
						/>
					
						<linearGradient id="SVGID_00000008115605274004128570000004415654545992555938_" gradientUnits="userSpaceOnUse" x1="1787.1636" y1="878.892" x2="1757.1619" y2="878.892">
						<stop  offset="0" style="stop-color:#FFFFFF"/>
						<stop  offset="1" style="stop-color:#000000"/>
					</linearGradient>
					<path style="fill:url(#SVGID_00000008115605274004128570000004415654545992555938_);" d="M1788.7,887.9c0,1.1-0.9,2-2,2H1770
						c-1.1,0-2-0.9-2-2v-18c0-1.1,0.9-2,2-2h16.8c1.1,0,2,0.9,2,2V887.9z"/>
				</g>
				<g>
					<path class="st36" d="M1788.7,929.9c0,1.1-0.9,2-2,2H1770c-1.1,0-2-0.9-2-2v-18c0-1.1,0.9-2,2-2h16.8c1.1,0,2,0.9,2,2V929.9z"
						/>
					
						<linearGradient id="SVGID_00000171679411200702334640000011265009014190962834_" gradientUnits="userSpaceOnUse" x1="1787.1636" y1="920.9446" x2="1757.1619" y2="920.9446">
						<stop  offset="0" style="stop-color:#FFFFFF"/>
						<stop  offset="1" style="stop-color:#000000"/>
					</linearGradient>
					<path style="fill:url(#SVGID_00000171679411200702334640000011265009014190962834_);" d="M1788.7,929.9c0,1.1-0.9,2-2,2H1770
						c-1.1,0-2-0.9-2-2v-18c0-1.1,0.9-2,2-2h16.8c1.1,0,2,0.9,2,2V929.9z"/>
				</g>
				<g>
					<path class="st36" d="M1788.7,972c0,1.1-0.9,2-2,2H1770c-1.1,0-2-0.9-2-2v-18c0-1.1,0.9-2,2-2h16.8c1.1,0,2,0.9,2,2V972z"/>
					
						<linearGradient id="SVGID_00000097461638043015731730000010629476755189759405_" gradientUnits="userSpaceOnUse" x1="1787.1636" y1="962.9993" x2="1757.1619" y2="962.9993">
						<stop  offset="0" style="stop-color:#FFFFFF"/>
						<stop  offset="1" style="stop-color:#000000"/>
					</linearGradient>
					<path style="fill:url(#SVGID_00000097461638043015731730000010629476755189759405_);" d="M1788.7,972c0,1.1-0.9,2-2,2H1770
						c-1.1,0-2-0.9-2-2v-18c0-1.1,0.9-2,2-2h16.8c1.1,0,2,0.9,2,2V972z"/>
				</g>
				<path class="st36" d="M1773.6,978.8c0,2-1.7,3.7-3.7,3.7h-34.5c-2,0-3.7-1.7-3.7-3.7V863.1c0-2,1.7-3.7,3.7-3.7h34.5
					c2,0,3.7,1.7,3.7,3.7V978.8z"/>
				<g>
					<g>
						<path class="st36" d="M1531,758c1.1,0,2,0.9,2,2v16.8c0,1.1-0.9,2-2,2h-18c-1.1,0-2-0.9-2-2V760c0-1.1,0.9-2,2-2H1531z"/>
						
							<linearGradient id="SVGID_00000144302670364935883610000001126161789691441046_" gradientUnits="userSpaceOnUse" x1="7363.5088" y1="2743.7261" x2="7333.5068" y2="2743.7261" gradientTransform="matrix(0 -1 1 0 -1221.7236 8123.064)">
							<stop  offset="0" style="stop-color:#FFFFFF"/>
							<stop  offset="1" style="stop-color:#000000"/>
						</linearGradient>
						<path style="fill:url(#SVGID_00000144302670364935883610000001126161789691441046_);" d="M1531,758c1.1,0,2,0.9,2,2v16.8
							c0,1.1-0.9,2-2,2h-18c-1.1,0-2-0.9-2-2V760c0-1.1,0.9-2,2-2H1531z"/>
					</g>
					<g>
						<path class="st36" d="M1573.1,758c1.1,0,2,0.9,2,2v16.8c0,1.1-0.9,2-2,2h-18c-1.1,0-2-0.9-2-2V760c0-1.1,0.9-2,2-2H1573.1z"/>
						
							<linearGradient id="SVGID_00000163030673599799759230000012240673046214711949_" gradientUnits="userSpaceOnUse" x1="7363.5088" y1="2785.7788" x2="7333.5068" y2="2785.7788" gradientTransform="matrix(0 -1 1 0 -1221.7236 8123.064)">
							<stop  offset="0" style="stop-color:#FFFFFF"/>
							<stop  offset="1" style="stop-color:#000000"/>
						</linearGradient>
						<path style="fill:url(#SVGID_00000163030673599799759230000012240673046214711949_);" d="M1573.1,758c1.1,0,2,0.9,2,2v16.8
							c0,1.1-0.9,2-2,2h-18c-1.1,0-2-0.9-2-2V760c0-1.1,0.9-2,2-2H1573.1z"/>
					</g>
				</g>
				<path class="st36" d="M1582.6,773.1c2,0,3.7,1.7,3.7,3.7v34.5c0,2-1.7,3.7-3.7,3.7h-79.1c-2,0-3.7-1.7-3.7-3.7v-34.5
					c0-2,1.7-3.7,3.7-3.7H1582.6z"/>
				<g>
					<path class="st35" d="M1897.8,1283.6c-1,0-2-0.4-2.8-1.2c-1.6-1.6-1.6-4.1,0-5.7l9.4-9.4l-9.4-9.4c-1.6-1.6-1.6-4.1,0-5.7
						c1.6-1.6,4.1-1.6,5.7,0l12.2,12.2c1.6,1.6,1.6,4.1,0,5.7l-12.2,12.2C1899.8,1283.2,1898.8,1283.6,1897.8,1283.6z"/>
				</g>
				<g>
					<path class="st35" d="M2130.4,924.8h-341.7v-8h341.7c11.6,0,21-9.4,21-21V346.4c0-11.6-9.4-21-21-21h-87.1v-8h87.1
						c16,0,29,13,29,29v549.4C2159.4,911.8,2146.4,924.8,2130.4,924.8z"/>
				</g>
				<g>
					<path class="st35" d="M1844,882.9h-55.2v-8h55.2c11.6,0,21-9.4,21-21v-87.6h8v87.6C1873,869.9,1860,882.9,1844,882.9z"/>
				</g>
				<g>
					<path class="st35" d="M2055.3,337.6c-1,0-2-0.4-2.8-1.2l-12.2-12.2c-1.6-1.6-1.6-4.1,0-5.7l12.2-12.2c1.6-1.6,4.1-1.6,5.7,0
						c1.6,1.6,1.6,4.1,0,5.7l-9.4,9.4l9.4,9.4c1.6,1.6,1.6,4.1,0,5.7C2057.4,337.2,2056.4,337.6,2055.3,337.6z"/>
				</g>
				<g>
					<path class="st35" d="M1881.2,782.5c-1,0-2-0.4-2.8-1.2l-9.4-9.4l-9.4,9.4c-1.6,1.6-4.1,1.6-5.7,0c-1.6-1.6-1.6-4.1,0-5.7
						l12.2-12.2c1.6-1.6,4.1-1.6,5.7,0l12.2,12.2c1.6,1.6,1.6,4.1,0,5.7C1883.2,782.1,1882.2,782.5,1881.2,782.5z"/>
				</g>
				<g>
					<path class="st35" d="M1640.4,621.5c-1,0-2-0.4-2.8-1.2c-1.6-1.6-1.6-4.1,0-5.7l9.4-9.4l-9.4-9.4c-1.6-1.6-1.6-4.1,0-5.7
						c1.6-1.6,4.1-1.6,5.7,0l12.2,12.2c1.6,1.6,1.6,4.1,0,5.7l-12.2,12.2C1642.4,621.2,1641.4,621.5,1640.4,621.5z"/>
				</g>
				<g>
					<path class="st35" d="M1445.7,557.8c-1,0-2-0.4-2.8-1.2l-12.2-12.2c-1.6-1.6-1.6-4.1,0-5.7l12.2-12.2c1.6-1.6,4.1-1.6,5.7,0
						c1.6,1.6,1.6,4.1,0,5.7l-9.4,9.4l9.4,9.4c1.6,1.6,1.6,4.1,0,5.7C1447.7,557.4,1446.7,557.8,1445.7,557.8z"/>
				</g>
			</g>
			<g>
				
					<linearGradient id="SVGID_00000029024544346396554210000011603400626207344813_" gradientUnits="userSpaceOnUse" x1="11558.1162" y1="760.7197" x2="11385.7969" y2="822.946" gradientTransform="matrix(1 0 0 1 -10452.1211 0)">
					<stop  offset="0" style="stop-color:#0F1E2D"/>
					<stop  offset="1" style="stop-color:#0B3D59"/>
				</linearGradient>
				<path style="fill:url(#SVGID_00000029024544346396554210000011603400626207344813_);" d="M1094.1,751.1c0,0-95.9-1-115.1-0.4
					c-19.2,0.6-24.2,37.4,0.3,48.2c24.5,10.8,58.7,25.2,83.9,26c25.2,0.8,44.7-4.8,60.1-22.6
					C1138.7,784.6,1119.9,751.3,1094.1,751.1z"/>
				<g>
					<path class="st52" d="M1125.8,751.1c0,0-49.1-0.4-68.3-0.4c-9.6,0-24.5,74.3,9.6,74.3c15.8,0,2.6,0,27.9,0
						c39.9,0,73-28.1,62-61.4C1154.9,757.5,1151.6,751.3,1125.8,751.1z"/>
				</g>
				<path class="st52" d="M1043.9,621.1c0,0-9.4-2.6-11.5-9c-2.1-6.4,1.1-9.5-0.6-11.3c-3.2-3.4-6.2-16-4.8-23.9
					c1.8-10.5,3.5-23.4,33-28.2c18.4-3,36.1,17.1,53.1,48.4c8,14.7,25.4,10,35.9,9c19.3-1.8,28.9,12.9,32.1,27.2
					c2.7,12.1-5,15.1-4.4,17.2c1.3,5.5,11.8,25.9-23.2,48.4c-19.5,12.5-45.3,21.8-80.9,10.8c-35.6-11-40.3-45.7-35.6-60.7
					C1041.8,633.9,1043.9,621.1,1043.9,621.1z"/>
				<g>
					<g>
						<path class="st53" d="M1097.4,681.2c0,0,11.8,15.2,15.1,22.2c2.3,5-1.8,13.5-6.2,15.2c-4.4,1.7-19.3-7.7-28.8-19.2
							C1070.3,690.5,1095.3,680.4,1097.4,681.2z"/>
						
							<linearGradient id="SVGID_00000153699081629036772380000013903333946525158294_" gradientUnits="userSpaceOnUse" x1="967.405" y1="567.5853" x2="1168.407" y2="781.5873">
							<stop  offset="0" style="stop-color:#0BC9D8"/>
							<stop  offset="1" style="stop-color:#0878B2"/>
						</linearGradient>
						<path style="fill:url(#SVGID_00000153699081629036772380000013903333946525158294_);" d="M1042,630.4
							c9.3-4.9,70.9,55.8,70.9,55.8s-1.7,10.5-12.5,19.1c-9.9,7.8-16.6,8.1-16.6,8.1s-11.6-14.1-36.5-26.2
							c-7-3.4-14.8-13.1-15.5-30.6C1031.3,645,1035.8,633.7,1042,630.4z"/>
					</g>
					<g>
						<path class="st53" d="M1005.3,737.3c-4.2,2.4-13.3,4.1-15.3,0.8c-1.3-2.1,4.3-4.5,6.6-5.1c3.2-0.9,14.9-3.3,14.9-3.3
							S1008.5,735.5,1005.3,737.3z"/>
						<path class="st53" d="M1080.8,703.8c-12.6,1.8-59.6,15.6-71.7,16.5c-5.7,0.4-11.8-7.8-28.1-2.1c-13.6,4.8-11,16.9-3.4,13.1
							c17.5-8.8,23.4,13.7,32.8-0.1c11.1-2.4,38.9-4.8,38.9-4.8l50.8-5.2c0,0,12.8-2.3,10.9-11.2
							C1109.4,702.8,1090.2,702.5,1080.8,703.8z"/>
					</g>
				</g>
				
					<linearGradient id="SVGID_00000059291968466588336120000012945054246539577750_" gradientUnits="userSpaceOnUse" x1="1064.2719" y1="642.4481" x2="1103.6049" y2="774.7819">
					<stop  offset="0" style="stop-color:#FCBE14"/>
					<stop  offset="1" style="stop-color:#FD890C"/>
				</linearGradient>
				<path style="fill:url(#SVGID_00000059291968466588336120000012945054246539577750_);" d="M1038.1,648.8
					c-2.9-17.1,0.9-20.3,25.6-25.1c7.3-1.4,12.9-1.6,19.9-2.6c24.1-3.3,32.4-4.3,42.5,20.4c18.5,45.5,30.5,109,33.1,122
					c3.8,19-59.4-12.8-76.1-12.8c-56.7,0-50.2-0.2-50.2-0.2s10.5-7,9.5-26.6c-11.2-1.7-16.2-5.1-18.4-13.5
					C1020.4,697.2,1043.9,683.2,1038.1,648.8z"/>
				<path class="st52" d="M1071.3,620.3c10.6-1.2,21.7-8.4,23.9-1.2c2.2,7.2-0.9,35.9-16.3,46.5c-15.4,10.6-29.6,5.8-30.1-3.3
					c-0.5-9.1,1.6-19.2,2.2-26.5c0.6-7.3-3.3-13.8,4.2-14.8C1062.7,620,1065.4,621,1071.3,620.3z"/>
				<path class="st53" d="M1063.7,623.7c7.3-1.4,12.9-1.6,19.9-2.6c2.1-0.3,4-0.5,5.9-0.7c-0.1,10.7-1.5,44.7-25.6,45.2
					c-18.3,0.4-6.9-7.3-8.5-40.2C1057.8,624.8,1060.6,624.2,1063.7,623.7z"/>
				<g>
					<g>
						<g>
							<path class="st53" d="M1083,621.5c-7.3-13.3-13.5-21.3-21.8-32.8c-0.1-0.5-20.7,6.1-28.3-2.5c0,0,2,13.2,6.5,23.3
								c4.3,9.6,8.7,14.3,17.3,6.9c3.6,5.1,2.7,8.1,3.7,13.6c1.6,8.8,8.3,11,12.5,10.3C1077.1,639.8,1091,636.1,1083,621.5z"/>
							<path class="st53" d="M1070.7,588c2.1,2,1.3,6.2-1.6,9.2c-3,3.1-7.1,3.9-9.2,1.9c-2.1-2-1.4-6.2,1.6-9.2
								C1064.5,586.8,1068.6,586,1070.7,588z"/>
						</g>
					</g>
				</g>
				<g>
					<path class="st56" d="M1087.9,750.5c0.9,0,1.6-0.7,1.6-1.6v-1.1c0-0.9-0.7-1.6-1.6-1.6h-45.8c-0.9,0-1.6,0.7-1.6,1.6v1.1
						c0,0.9,0.7,1.6,1.6,1.6H1087.9z"/>
					<path class="st56" d="M1045.2,746.3c0.6,2.3-0.9,4.2-3.3,4.2h-85.8c-2.4,0-4.8-1.9-5.4-4.2l-14.8-61.2
						c-0.6-2.3,0.9-4.2,3.3-4.2h85.8c2.4,0,4.8,1.9,5.4,4.2L1045.2,746.3z"/>
					
						<linearGradient id="SVGID_00000088102172175448307920000017910485444776830344_" gradientUnits="userSpaceOnUse" x1="-13090.8438" y1="742.1364" x2="-13090.8438" y2="634.7468" gradientTransform="matrix(-1 0 0 1 -12057.7383 0)">
						<stop  offset="0" style="stop-color:#FFFFFF"/>
						<stop  offset="1" style="stop-color:#A0A0A0"/>
					</linearGradient>
					<path style="fill:url(#SVGID_00000088102172175448307920000017910485444776830344_);" d="M1045.2,746.3l-14.8-61.2
						c-0.6-2.3-3-4.2-5.4-4.2h-4.1c2.4,0,4.8,1.9,5.4,4.2l14.8,61.2c0.6,2.3-0.9,4.2-3.3,4.2h4.1
						C1044.3,750.5,1045.8,748.6,1045.2,746.3z"/>
					<g>
						<path class="st52" d="M978.3,716.5c-1.6-7,2-12.7,7.9-12.7c5.9,0,12,5.7,13.5,12.7c1.6,7-2,12.7-7.9,12.7
							C985.9,729.3,979.8,723.6,978.3,716.5z"/>
						
							<linearGradient id="SVGID_00000045588795400162993200000004654097023989164202_" gradientUnits="userSpaceOnUse" x1="-3130.8159" y1="704.8519" x2="-3130.8159" y2="762.9338" gradientTransform="matrix(-1 0 0 1 -2138.9958 0)">
							<stop  offset="0" style="stop-color:#FFFFFF"/>
							<stop  offset="1" style="stop-color:#AAAAAA"/>
						</linearGradient>
						<path style="fill:url(#SVGID_00000045588795400162993200000004654097023989164202_);" d="M994.4,716.5
							c-1.3-5.9-5.9-10.9-10.8-12.3c0.8-0.2,1.6-0.4,2.5-0.4c5.9,0,12,5.7,13.5,12.7c1.6,7-2,12.7-7.9,12.7c-0.9,0-1.8-0.1-2.7-0.4
							C993.4,727.5,995.8,722.5,994.4,716.5z"/>
					</g>
				</g>
				<g>
					<g>
						<path class="st53" d="M1167.9,668c0,0,11.8,15.2,15.1,22.2c2.3,5-1.8,13.5-6.2,15.2c-4.4,1.7-19.3-7.7-28.8-19.2
							C1140.8,677.3,1165.8,667.2,1167.9,668z"/>
						
							<linearGradient id="SVGID_00000166635697974344071900000014037153984402319278_" gradientUnits="userSpaceOnUse" x1="1011.7026" y1="525.9813" x2="1212.7017" y2="739.9802">
							<stop  offset="0" style="stop-color:#0BC9D8"/>
							<stop  offset="1" style="stop-color:#0878B2"/>
						</linearGradient>
						<path style="fill:url(#SVGID_00000166635697974344071900000014037153984402319278_);" d="M1111.1,621
							c41.2,13.8,72.3,51.9,72.3,51.9s-1.7,10.5-12.5,19.1c-9.9,7.8-16.7,8.1-16.7,8.1s-11.6-14.1-36.5-26.2
							c-7-3.4-14.5-17.8-17.6-29.6C1097.1,633.2,1098.8,616.9,1111.1,621z"/>
					</g>
					<g>
						<path class="st53" d="M1075.8,724.1c-4.2,2.4-13.3,4.1-15.3,0.8c-1.2-2.1,4.3-4.5,6.6-5.1c3.2-0.9,14.9-3.3,14.9-3.3
							S1079,722.2,1075.8,724.1z"/>
						<path class="st53" d="M1151.3,690.6c-12.6,1.8-59.6,15.6-71.7,16.5c-5.7,0.4-11.8-7.8-28.1-2.1c-13.6,4.8-11,16.9-3.4,13
							c17.5-8.8,23.4,13.7,32.8-0.1c11.1-2.4,38.9-4.8,38.9-4.8l50.8-5.2c0,0,12.8-2.3,10.9-11.2
							C1179.9,689.6,1160.7,689.3,1151.3,690.6z"/>
					</g>
				</g>
				<g>
					<path class="st60" d="M874.1,907c0,0,29.7,4.4,31.9,4.6c2.4,0.2,6.4,0.5,3.8,7.7c-2.6,7.3-3.3,9.6-3.3,9.6
						s-31.1-13.1-34.3-14.9C869.1,912.3,867.6,908.6,874.1,907z"/>
					<path class="st53" d="M900.6,912.2c0,0,0.8,2.8,3.1,3.7c3.4,1.3,4.8-0.2,4.8-0.2s9.9-18.2,19.6-28.4
						c2.8-2.9,9.3-10.6,17.3-20.4l-20.2-11.5C913,883.6,900.6,912.2,900.6,912.2z"/>
					
						<linearGradient id="SVGID_00000085232173399911197860000017189696908999644589_" gradientUnits="userSpaceOnUse" x1="11556.8994" y1="757.356" x2="11384.583" y2="819.5814" gradientTransform="matrix(1 0 0 1 -10452.1211 0)">
						<stop  offset="0" style="stop-color:#0F1E2D"/>
						<stop  offset="1" style="stop-color:#0B3D59"/>
					</linearGradient>
					<path style="fill:url(#SVGID_00000085232173399911197860000017189696908999644589_);" d="M999.3,757.1
						c-16.6-10.5-29.5-7.4-33.9,2.1c-10.1,21.8-33.7,77.5-41.6,95.7l22.3,12.9c20-24.4,49.1-62.8,56.6-72.6
						C1013,781.4,1015.9,767.6,999.3,757.1z"/>
				</g>
				<g>
					<path class="st60" d="M972.5,922.1c0,0,30-0.8,32.3-1c2.5-0.2,6.4-0.7,5.1,6.9c-1.3,7.6-1.6,10-1.6,10s-32.9-7.5-36.3-8.7
						C968.5,928.2,966.3,924.9,972.5,922.1z"/>
					<path class="st53" d="M999.5,922.6c0,0,1.3,2.7,3.7,3.1c3.6,0.7,4.7-1.1,4.7-1.1s6.6-19.6,14.4-31.4
						c2.2-3.4,7.3-12.1,13.5-23.1l-21.9-7.8C1006.7,892.4,999.5,922.6,999.5,922.6z"/>
					<path class="st52" d="M1069.7,752.8c-18.2-7.5-33.2,6.8-35.9,19.2c-5.1,23.5-16.9,70.9-21.4,90.2l24.2,8.9
						c15.5-27.5,37.5-70.4,43.1-81.4C1087.4,774.3,1087.9,760.2,1069.7,752.8z"/>
				</g>
			</g>
			<g>
				<g>
					<path class="st52" d="M1283.7,97.8c5.6-18.5-30.3-37.6-45.6-12c-18.5,31-0.4,60.2-44.2,43.8c-41.6-15.5-74.5,52.9-28.9,76
						c39.3,19.9,71.6,7.7,89.1-26.1C1269.2,150,1270.8,140.2,1283.7,97.8z"/>
					
						<linearGradient id="SVGID_00000033359822806167330440000000523857338930201019_" gradientUnits="userSpaceOnUse" x1="-8371.1025" y1="-57.7101" x2="-8340.3965" y2="-188.0674" gradientTransform="matrix(0.9999 1.410000e-02 -1.410000e-02 0.9999 9633.4932 365.8659)">
						<stop  offset="0" style="stop-color:#FCBE14"/>
						<stop  offset="1" style="stop-color:#FD890C"/>
					</linearGradient>
					<path style="fill:url(#SVGID_00000033359822806167330440000000523857338930201019_);" d="M1292.7,93.4c0,0-9.1-2.7-11-3.1
						c-1.9-0.5-8,4.7-9.7,13.4c-1.9,10-0.3,15.5,2.4,16.4c2.7,0.9,12.8,3.1,12.8,3.1s9.1-2.9,10.4-12.8
						C1298.8,100.4,1292.7,93.4,1292.7,93.4z"/>
				</g>
				<path class="st52" d="M1343.6,139.5c6.3-4.2,9.7-18.7,8.5-26.9c-1.7-10.8-2.8-27.3-33.4-29.4c-21-1.5-42.6,17.2-32.3,52.5
					C1292.2,156,1332.1,147.1,1343.6,139.5z"/>
				<g>
					<path class="st60" d="M1506.2,387.6c0,0-31.4,1.4-33.7,1.3c-2.6,0-6.7-0.2-4.8,7.6c1.9,7.8,2.3,10.3,2.3,10.3
						s33.7-10.2,37.2-11.7C1510.8,393.7,1512.8,390.1,1506.2,387.6z"/>
					<path class="st53" d="M1478.6,390.6c0,0-0.2,3.1-2.3,4.5c-3.2,2.1-5,0.8-5,0.8s-14-16.5-26.1-25c-3.5-2.4-11.7-8.9-22-17.2
						l18.2-16C1459.9,364,1478.6,390.6,1478.6,390.6z"/>
					<path class="st52" d="M1345,252.7c14.8-14.3,34.8-6.1,42.2,4.8c14,20.8,43.7,62.4,55.6,79.3l-20,17.9
						c-25.6-20.7-63.5-53.9-73.2-62.4C1336,280.5,1330.2,267,1345,252.7z"/>
				</g>
				
					<linearGradient id="SVGID_00000045602341679231294180000007985287764945597339_" gradientUnits="userSpaceOnUse" x1="2815.3572" y1="325.9732" x2="2628.729" y2="325.9732" gradientTransform="matrix(-1 0 0 1 4060.676 0)">
					<stop  offset="0" style="stop-color:#0F1E2D"/>
					<stop  offset="1" style="stop-color:#0B3D59"/>
				</linearGradient>
				<path style="fill:url(#SVGID_00000045602341679231294180000007985287764945597339_);" d="M1281.7,287.7c0,0,100.2-1,120.3-0.4
					c20.1,0.6,25.3,39-0.4,50.4c-25.6,11.3-61.3,27.2-87.7,27.2c-27.6,0-33.8,0-53.8,0C1235.5,364.9,1254.7,287.9,1281.7,287.7z"/>
				<g>
					<g>
						<path class="st53" d="M1332.5,233.6c0,0,12.5,15.7,18.8,20.8c4.5,3.6,14.1,1.5,16.9-2.6c2.8-4-3-21.5-12.4-33.9
							C1348.6,208.4,1332.2,231.3,1332.5,233.6z"/>
						
							<linearGradient id="SVGID_00000067233273577288471960000010720004308948354224_" gradientUnits="userSpaceOnUse" x1="-3899.0459" y1="1785.9683" x2="-3899.0459" y2="1689.4651" gradientTransform="matrix(0.9673 0.2535 -0.2535 0.9673 5546.0859 -506.3581)">
							<stop  offset="0" style="stop-color:#FCBE14"/>
							<stop  offset="1" style="stop-color:#FD890C"/>
						</linearGradient>
						<path style="fill:url(#SVGID_00000067233273577288471960000010720004308948354224_);" d="M1294.5,164.8
							c4.6,24.1,39.1,85.7,39.1,85.7s11,0.9,22.5-8c10.4-8.1,12.3-14.9,12.3-14.9s-7.7-17.2-17.6-43.6
							C1335.1,142.3,1293.2,157.6,1294.5,164.8z"/>
					</g>
					<g>
						<path class="st53" d="M1455.5,210.3c5-0.5,13.8-4.7,13.5-8.6c-0.2-2.5-6.4-1.2-8.7-0.4c-3.3,1.2-14.7,6.2-14.7,6.2
							S1451.7,210.7,1455.5,210.3z"/>
						<path class="st53" d="M1371.1,227.9c11.8-6.1,60.1-23.1,70.9-29.6c5.1-3.1,5.3-13.8,22.6-18.8c14.5-4.2,19.6,7.6,10.9,9
							c-20.2,3.1-11.5,25.9-27.8,19.9c-10.9,4.7-36,19.6-36,19.6l-46.3,26.5c0,0-12.3,5.8-16-2.9
							C1346.1,244.4,1362.2,232.5,1371.1,227.9z"/>
					</g>
				</g>
				
					<linearGradient id="SVGID_00000090295686259784700760000017135386467596303764_" gradientUnits="userSpaceOnUse" x1="-4613.4077" y1="323.9026" x2="-4613.4077" y2="195.1259" gradientTransform="matrix(1 0 0 1 5896.0332 0)">
					<stop  offset="0" style="stop-color:#0097A9"/>
					<stop  offset="1" style="stop-color:#0AABC3"/>
				</linearGradient>
				<path style="fill:url(#SVGID_00000090295686259784700760000017135386467596303764_);" d="M1338.4,180.8
					c3-17.9-0.9-21.2-26.7-26.2c-7.6-1.5-13.5-1.7-20.8-2.7c-25.2-3.5-33.9-4.5-44.4,21.3c-19.3,47.6-31.9,113.8-34.6,127.4
					c-4,19.8,62.1-13.4,79.5-13.4c59.2,0,52.5-0.2,52.5-0.2s-11-7.3-10-27.8c11.7-1.8,16.9-5.4,19.2-14.1
					C1356.8,231.4,1332.3,216.7,1338.4,180.8z"/>
				<path class="st52" d="M1303.6,151.1c-11.1-1.3-22.7-8.7-25-1.2c-2.3,7.5,0.9,37.5,17,48.6c16.1,11,31,6.1,31.5-3.4
					c0.5-9.5-1.7-20-2.3-27.6c-0.7-7.6,3.5-14.4-4.3-15.5C1312.6,150.8,1309.8,151.8,1303.6,151.1z"/>
				<path class="st53" d="M1311.6,154.6c-7.6-1.5-13.5-1.7-20.8-2.7c-2.2-0.3-4.2-0.5-6.1-0.7c0.1,11.2,1.6,46.7,26.7,47.3
					c19.1,0.4,7.2-7.6,8.8-42C1317.7,155.8,1314.9,155.2,1311.6,154.6z"/>
				<g>
					<g>
						<g>
							<path class="st53" d="M1291.3,151.3c8.3-13.5,15.1-21.6,24.4-33.2c0.2-0.5,21.3,7.3,29.6-1.2c0,0-2.7,13.6-7.9,24
								c-5,9.8-9.8,14.4-18.4,6.4c-4.1,5.2-3.2,8.4-4.5,14c-2.1,9.1-9.2,11-13.5,10.2C1296.6,170.6,1282.2,166,1291.3,151.3z"/>
							<path class="st53" d="M1305.8,116.9c-2.3,2-1.7,6.4,1.3,9.7c3,3.4,7.2,4.5,9.5,2.5c2.3-2,1.7-6.4-1.3-9.7
								C1312.4,116,1308.1,114.9,1305.8,116.9z"/>
						</g>
					</g>
				</g>
				<g>
					<path class="st53" d="M1228.4,226.7c0,0-3.3,19.8-2.8,27.9c0.3,5.8,8.4,11.5,13.3,10.8c4.9-0.6,13.9-16.7,16.9-32
						C1258,221.8,1229.9,224.9,1228.4,226.7z"/>
					
						<linearGradient id="SVGID_00000016064559462072473730000005105085601773936002_" gradientUnits="userSpaceOnUse" x1="-4650.4604" y1="231.0691" x2="-4650.4604" y2="134.5692" gradientTransform="matrix(1 0 0 1 5896.0332 0)">
						<stop  offset="0" style="stop-color:#FCBE14"/>
						<stop  offset="1" style="stop-color:#FD890C"/>
					</linearGradient>
					<path style="fill:url(#SVGID_00000016064559462072473730000005105085601773936002_);" d="M1257.2,155.3
						c-31,33.2-40.6,83.6-40.6,83.6s6.8,8.8,21,11.3c13,2.3,19.3-0.9,19.3-0.9s-0.5-4.8,14.6-32.4c3.9-7.2,3.7-26.3,1.4-41.4
						C1271.1,163.8,1266.5,145.4,1257.2,155.3z"/>
				</g>
				<g>
					<path class="st53" d="M1254.9,240.7c12.9-3.2,63.9-8.2,75.9-12l3.1,11.1c-11.7,2-39.6,10.5-39.6,10.5l-51.2,14.8
						c0,0-13.3,2.7-14.9-6.6C1226.8,250.8,1245.2,243,1254.9,240.7z"/>
				</g>
				<g>
					<path class="st60" d="M1464.3,485.9c0,0-27.9-14.3-29.9-15.5c-2.2-1.3-5.7-3.5-7.9,4.2c-2.2,7.7-3.1,10.1-3.1,10.1
						s34.3,7.8,38.1,8.2C1465.3,493.4,1468.9,491.3,1464.3,485.9z"/>
					<path class="st53" d="M1439.5,475.2c0,0-1.7,2.5-4.3,2.6c-3.8,0.2-4.7-1.9-4.7-1.9s-3.6-21.3-9.7-34.8
						c-1.8-3.8-5.5-13.6-10.2-26l23.8-4.5C1437,442.9,1439.5,475.2,1439.5,475.2z"/>
					
						<linearGradient id="SVGID_00000173866538994983910950000008019911418621363637_" gradientUnits="userSpaceOnUse" x1="2818.8467" y1="351.5592" x2="2628.469" y2="351.5592" gradientTransform="matrix(-1 0 0 1 4060.676 0)">
						<stop  offset="0" style="stop-color:#0F1E2D"/>
						<stop  offset="1" style="stop-color:#0B3D59"/>
					</linearGradient>
					<path style="fill:url(#SVGID_00000173866538994983910950000008019911418621363637_);" d="M1394.3,287.2c20.5-0.3,32,4,33.1,15
						c2.6,25,7,88,8.6,108.6l-26.4,5.2c-11.5-30.9-27.2-78.7-31.2-90.9C1372.8,307.9,1370.5,287.5,1394.3,287.2z"/>
				</g>
				<path class="st52" d="M1211.9,300.7c0,0,124.6-46,142.8-54.4c18.2-8.4,40.1,23.6,22.3,45.2c-17.8,21.6-42.9,51.3-66.2,63.6
					c-19,10.1-33,9.8-57.7,9.8C1227.1,364.9,1211.2,337,1211.9,300.7z"/>
				<g>
					<path class="st56" d="M1325.3,261.4c-0.6,2.4,1,4.4,3.5,4.4h89.6c2.5,0,5-2,5.6-4.4l15.5-63.9c0.6-2.4-1-4.4-3.5-4.4h-89.6
						c-2.5,0-5,2-5.6,4.4L1325.3,261.4z"/>
					
						<linearGradient id="SVGID_00000160894158698564107000000002530618203465986738_" gradientUnits="userSpaceOnUse" x1="-4328.3447" y1="257.0829" x2="-4328.3447" y2="144.908" gradientTransform="matrix(1 0 0 1 5666.2949 0)">
						<stop  offset="0" style="stop-color:#FFFFFF"/>
						<stop  offset="1" style="stop-color:#A0A0A0"/>
					</linearGradient>
					<path style="fill:url(#SVGID_00000160894158698564107000000002530618203465986738_);" d="M1325.3,261.4l15.5-63.9
						c0.6-2.4,3.1-4.4,5.6-4.4h4.3c-2.5,0-5,2-5.6,4.4l-15.5,63.9c-0.6,2.4,1,4.4,3.5,4.4h-4.3
						C1326.3,265.8,1324.7,263.8,1325.3,261.4z"/>
					<g>
						<path class="st52" d="M1395.2,230.4c1.6-7.3-2.1-13.3-8.2-13.3c-6.2,0-12.5,5.9-14.1,13.3c-1.6,7.3,2.1,13.3,8.2,13.3
							C1387.3,243.6,1393.6,237.7,1395.2,230.4z"/>
						
							<linearGradient id="SVGID_00000105396177363322072700000014301715501536537762_" gradientUnits="userSpaceOnUse" x1="5633.5215" y1="218.1392" x2="5633.5215" y2="278.8053" gradientTransform="matrix(1 0 0 1 -4252.4473 0)">
							<stop  offset="0" style="stop-color:#FFFFFF"/>
							<stop  offset="1" style="stop-color:#AAAAAA"/>
						</linearGradient>
						<path style="fill:url(#SVGID_00000105396177363322072700000014301715501536537762_);" d="M1378.3,230.4
							c1.4-6.2,6.1-11.4,11.3-12.9c-0.8-0.3-1.7-0.4-2.6-0.4c-6.2,0-12.5,5.9-14.1,13.3c-1.6,7.3,2.1,13.3,8.2,13.3
							c0.9,0,1.9-0.2,2.8-0.4C1379.4,241.8,1376.9,236.6,1378.3,230.4z"/>
					</g>
				</g>
				<g>
					<path class="st53" d="M1328.1,220.8c1.3-3.1,7-8.2,9.2-6.7c4.5,3-2.5,5.7-3.7,13.7c-0.8,5.1-8.5,6.5-8.5,6.5
						S1325.3,227.2,1328.1,220.8z"/>
					<path class="st53" d="M1335.8,249.4c-8.1,1.1-11.1-0.8-10.7-8.4c0.2-3.6-0.3-10.7,1.1-14.4c2.2-5.8,1.3-8,15.6-2.4
						C1348.7,226.9,1343.2,248.4,1335.8,249.4z"/>
				</g>
			</g>
			<g>
				<g>
					<path class="st53" d="M760.4,935.2c15.3-20.3,69.2-51.2,75.1-61.6c3.8-6.8,14.5,1.6,8.4,7.8c-4.8,4.9-47.3,49.7-59.8,61.9
						c-5.6,5.5-14.7,13.2-19.5,10.2C756.9,948.8,754.7,942.7,760.4,935.2z"/>
				</g>
				<g>
					<g>
						<path class="st70" d="M679.4,1395.4c0,0-32.2-8.2-34.6-8.9c-2.6-0.8-6.7-2.3-7.2,6.2c-0.5,8.5-0.8,11.2-0.8,11.2
							s37.3,0,41.3-0.5C682.2,1403,685.3,1400,679.4,1395.4z"/>
						
							<linearGradient id="SVGID_00000083784922594073386130000017842879110810617005_" gradientUnits="userSpaceOnUse" x1="-904.2744" y1="990.5452" x2="-904.2744" y2="1204.5552" gradientTransform="matrix(0.9913 0.1313 -0.1313 0.9913 1678.2964 217.4627)">
							<stop  offset="0" style="stop-color:#0F1E2D"/>
							<stop  offset="1" style="stop-color:#0B3D59"/>
						</linearGradient>
						<path style="fill:url(#SVGID_00000083784922594073386130000017842879110810617005_);" d="M693.7,1086.3
							c0,0-16.1,107.2-20.2,128.5c-4.1,21.3-46,20.3-53.7-9c-7.7-29.3-17.7-70-14-98.3c3.6-28.3,13.3-49,35.9-63
							C664.3,1030.5,698,1057.4,693.7,1086.3z"/>
						
							<linearGradient id="SVGID_00000092453234312153303920000006115678528937654412_" gradientUnits="userSpaceOnUse" x1="-892.6245" y1="990.5433" x2="-892.6245" y2="1204.5564" gradientTransform="matrix(0.9913 0.1313 -0.1313 0.9913 1678.2964 217.4627)">
							<stop  offset="0" style="stop-color:#0F1E2D"/>
							<stop  offset="1" style="stop-color:#0B3D59"/>
						</linearGradient>
						<path style="fill:url(#SVGID_00000092453234312153303920000006115678528937654412_);" d="M642.9,1188
							c21.8-0.7,32.3,9.4,31.2,21c-2.6,26.5-4.4,26.4-8.4,58.3c-1.9,15-4.3,43.2-7.5,68.9l-24.8-3.3c-5.5-33.2-13.2-95.5-14.9-110.4
							C616.1,1203.5,621.1,1188.7,642.9,1188z"/>
						<path class="st73" d="M650.4,1391.2c0,0-2.3,2.3-5,1.9c-4-0.6-4.4-2.9-4.4-2.9s0.7-22.9-2.9-38.1c-0.8-3.2-2-10-3.5-18.9
							l22.5,3C653.6,1365.2,650.4,1391.2,650.4,1391.2z"/>
					</g>
					<g>
						<g>
							<path class="st52" d="M641.9,1105.4c0,0-38.1,101.1-51.4,127.1c-9.7,18.9-51.4,12.5-52.4-17.1c-1-29.7,6.5-76.9,18.5-146.7
								C562.3,1034.9,652.3,1078.7,641.9,1105.4z"/>
							<path class="st52" d="M534.1,1249.9c1-18.7,8-56.8,29.1-53.9c21.1,2.9,32.2,19.4,31.2,23.1c-5,18.6-22.9,76-37.8,119.9l-26-5
								C530.9,1307,533.3,1264,534.1,1249.9z"/>
							<path class="st73" d="M531.4,1334l23.9,4.6c-10.3,30.5-17.7,51.7-17.7,51.7s-0.5,3.3-5.6,2.7c-3.8-0.5-3.8-3.7-3.8-3.7
								s4.2-20.5,3.2-35.8C531.3,1349.8,531.2,1342.8,531.4,1334z"/>
						</g>
						<path class="st74" d="M543.4,1393c0-0.8-0.1-1.5-0.2-2.2c-1-5.9-4.5-4.7-6.8-3.9c-0.4,0.1-1.8,0.5-3.8,1c-2-0.6-3.4-1-3.8-1.1
							c-2.3-0.7-5.7-2-6.8,3.8c-0.1,0.6-0.2,1.3-0.3,2.2c-0.6,8.3-0.9,10.9-0.9,10.9s5.1,0.1,11.7,0.1c6.6,0,11.7,0,11.7,0
							S543.9,1401.3,543.4,1393z"/>
					</g>
					<path class="st52" d="M668.7,876.2c17.7-1.8,18.2-36.4-1.3-46c-19.4-9.5-35.4,0.7-27.7,11.4c4.7,6.6-5.8,7.7-23.7,13.2
						c-3.8,1.2-10.1,2.3-10.6,12.1c-0.4,9.9,16.3,24.7,16.3,24.7s-2.9,7.8,3.9,11.9s17.3-4.6,17.3-4.6S646.8,878.5,668.7,876.2z"/>
					<g>
						<g>
							<g>
								<path class="st73" d="M742.2,928c0,0,25.7,6.1,33,9.3c5.2,2.3,1.4,9.3-0.8,13.6c-2.2,4.3-20.2,7.2-35.3,4.6
									C727.5,953.5,740.1,928.7,742.2,928z"/>
								
									<linearGradient id="SVGID_00000129903714997721389590000011649714789443360134_" gradientUnits="userSpaceOnUse" x1="691.9534" y1="-244.4622" x2="691.9534" y2="215.5502" gradientTransform="matrix(-0.5863 0.8101 0.8101 0.5863 1138.406 400.6897)">
									<stop  offset="0" style="stop-color:#FCBE14"/>
									<stop  offset="1" style="stop-color:#FD890C"/>
								</linearGradient>
								<path style="fill:url(#SVGID_00000129903714997721389590000011649714789443360134_);" d="M652.5,916.3
									c25.6-0.7,104.6,10.2,104.6,10.2s3.5,6.3,2.3,20.5c-1.8,21.3-8.4,27.9-8.4,27.9s-36.3,1.6-62.4,1.1
									c-12.7-0.3-18.3-6.3-28.8-23.5C651.1,938,637,916.8,652.5,916.3z"/>
							</g>
						</g>
					</g>
					
						<linearGradient id="SVGID_00000087389032047131400130000001203013659001219497_" gradientUnits="userSpaceOnUse" x1="-1557.8369" y1="785.955" x2="-1557.8369" y2="1047.1046" gradientTransform="matrix(-0.9972 -7.510000e-02 -7.510000e-02 0.9972 -856.5808 -0.7018)">
						<stop  offset="0" style="stop-color:#0BC9D8"/>
						<stop  offset="1" style="stop-color:#0878B2"/>
					</linearGradient>
					<path style="fill:url(#SVGID_00000087389032047131400130000001203013659001219497_);" d="M650.6,915.6
						c25.1,0.7,27.9,2.8,32.6,27.8c16.8,90.2,14.3,151.5,14.3,151.5s-9,22-66.1,21c-75.1-1.3-83.2-13.3-83.2-13.3
						s9.9-109.5,28.8-158.9c9.2-24,23-27.3,50.9-29C636,914.3,642.2,915.3,650.6,915.6z"/>
					<path class="st52" d="M663.8,915.5c1.6,10.1,7.9,32.5-16,30.6c-28.1-2.3-33.2-31.5-31.5-34.8c3.8-7.4,14.9-2.9,21.9-2.3
						C645.3,909.7,662.5,907,663.8,915.5z"/>
					<path class="st73" d="M623.7,911c1.4-0.1,2.7-0.1,4.2-0.1c8,0,14.2,0.8,22.5,2.1c2.6,0.4,5,1,7.2,1.7
						c0.7,6.6,6.6,24.8-11.4,23.9C627.8,937.6,623.1,917.2,623.7,911z"/>
					<g>
						<path class="st73" d="M630.2,910.4c2.8-20.1,5.9-23.2,10.2-38.7c0-0.6,22.9,1,27.6-11c0,0,3.1,14.7,2.3,27.3
							c-0.8,11.8-3.6,18.5-15.6,14.1c0.6,5.7-0.6,12.4,0,17.3c1.2,10-5.6,13-10.4,12.8C639.5,932.1,627.7,928.9,630.2,910.4z"/>
						<path class="st73" d="M628.7,877.4c-1.4,3,1,7,5.4,9.1c4.4,2.1,9.1,1.4,10.5-1.6c1.4-3-1-7-5.4-9.1
							C634.8,873.7,630.2,874.4,628.7,877.4z"/>
					</g>
				</g>
				<g>
					<g>
						<path class="st21" d="M764.9,1005.4c0,4,3.3,7.3,7.3,7.3l57.8,0.1c4,0,7.3-3.3,7.3-7.2l0.3-183.6c0-4-3.2-7.3-7.2-7.3
							l-57.8-0.1c-4,0-7.3,3.3-7.3,7.3L764.9,1005.4z"/>
						<g class="st37">
							
								<linearGradient id="SVGID_00000163777319251463206190000008682244256591431609_" gradientUnits="userSpaceOnUse" x1="3900.9036" y1="606.9623" x2="3900.9036" y2="135.296" gradientTransform="matrix(-1 -2.000000e-03 -2.000000e-03 1 4725.8696 422.0288)">
								<stop  offset="0" style="stop-color:#FFFFFF"/>
								<stop  offset="1" style="stop-color:#404040"/>
							</linearGradient>
							<path style="fill:url(#SVGID_00000163777319251463206190000008682244256591431609_);" d="M824.1,824.1c3.3,0,6,2.7,6,6
								l-0.3,173c0,1.3-1.1,2.4-2.4,2.4l-7.3,0c-1.3,0-2.4-1.1-2.4-2.4l0.3-173C818.1,826.8,820.8,824.1,824.1,824.1z"/>
							
								<linearGradient id="SVGID_00000123400405236470715990000002707220164574191530_" gradientUnits="userSpaceOnUse" x1="3916.0657" y1="606.9644" x2="3916.0657" y2="135.2952" gradientTransform="matrix(-1 -2.000000e-03 -2.000000e-03 1 4725.8696 422.0288)">
								<stop  offset="0" style="stop-color:#FFFFFF"/>
								<stop  offset="1" style="stop-color:#404040"/>
							</linearGradient>
							<path style="fill:url(#SVGID_00000123400405236470715990000002707220164574191530_);" d="M809,824c3.3,0,6,2.7,6,6l-0.3,173
								c0,1.3-1.1,2.3-2.4,2.3l-7.2,0c-1.3,0-2.4-1.1-2.4-2.4l0.3-173C803,826.7,805.6,824,809,824z"/>
							
								<linearGradient id="SVGID_00000126306999593625854590000004667807400558330294_" gradientUnits="userSpaceOnUse" x1="3931.2039" y1="606.9664" x2="3931.2039" y2="135.2973" gradientTransform="matrix(-1 -2.000000e-03 -2.000000e-03 1 4725.8696 422.0288)">
								<stop  offset="0" style="stop-color:#FFFFFF"/>
								<stop  offset="1" style="stop-color:#404040"/>
							</linearGradient>
							<path style="fill:url(#SVGID_00000126306999593625854590000004667807400558330294_);" d="M793.8,824c3.3,0,6,2.7,6,6
								l-0.3,173c0,1.3-1.1,2.4-2.4,2.4h-7.3c-1.3,0-2.4-1.1-2.4-2.4l0.3-173C787.8,826.7,790.5,824,793.8,824z"/>
							
								<linearGradient id="SVGID_00000160882551455731525920000003045873251045947581_" gradientUnits="userSpaceOnUse" x1="3946.3623" y1="606.9428" x2="3946.3623" y2="135.3113" gradientTransform="matrix(-1 -2.000000e-03 -2.000000e-03 1 4725.8696 422.0288)">
								<stop  offset="0" style="stop-color:#FFFFFF"/>
								<stop  offset="1" style="stop-color:#404040"/>
							</linearGradient>
							<path style="fill:url(#SVGID_00000160882551455731525920000003045873251045947581_);" d="M778.7,824c3.3,0,6,2.7,6,6
								l-0.3,173c0,1.3-1.1,2.4-2.4,2.4l-7.3,0c-1.3,0-2.4-1-2.3-2.4l0.3-173C772.7,826.7,775.4,824,778.7,824z"/>
						</g>
						<path class="st21" d="M765.2,799.6c0,4,3.2,7.3,7.2,7.3l57.8,0.1c4,0,7.3-3.3,7.3-7.3l0,0c0-4-3.3-7.3-7.3-7.3l-57.8-0.1
							C768.5,792.3,765.3,795.5,765.2,799.6L765.2,799.6z"/>
						<defs>
							
								<filter id="Adobe_OpacityMaskFilter_00000160188392321730302540000017067133147351437739_" filterUnits="userSpaceOnUse" x="820.2" y="826.4" width="7.6" height="176.6">
								<feFlood  style="flood-color:white;flood-opacity:1" result="back"/>
								<feBlend  in="SourceGraphic" in2="back" mode="normal"/>
							</filter>
						</defs>
						
							<mask maskUnits="userSpaceOnUse" x="820.2" y="826.4" width="7.6" height="176.6" id="SVGID_00000090265441731027450110000003010978987095178175_">
							<g style="filter:url(#Adobe_OpacityMaskFilter_00000160188392321730302540000017067133147351437739_);">
								<defs>
									
										<filter id="Adobe_OpacityMaskFilter_00000113323795590707006760000001028068010967536291_" filterUnits="userSpaceOnUse" x="820.2" y="826.4" width="7.6" height="176.6">
										<feFlood  style="flood-color:white;flood-opacity:1" result="back"/>
										<feBlend  in="SourceGraphic" in2="back" mode="normal"/>
									</filter>
								</defs>
								
									<mask maskUnits="userSpaceOnUse" x="820.2" y="826.4" width="7.6" height="176.6" id="SVGID_00000090265441731027450110000003010978987095178175_">
									<g style="filter:url(#Adobe_OpacityMaskFilter_00000113323795590707006760000001028068010967536291_);">
									</g>
								</mask>
								
									<linearGradient id="SVGID_00000124864223793186609050000006711121671364529576_" gradientUnits="userSpaceOnUse" x1="3900.928" y1="412.6969" x2="3900.928" y2="570.0645" gradientTransform="matrix(-1 -2.000000e-03 -2.000000e-03 1 4725.8696 422.0288)">
									<stop  offset="0" style="stop-color:#FFFFFF"/>
									<stop  offset="0.5879" style="stop-color:#FFFFFF"/>
									<stop  offset="1" style="stop-color:#000000"/>
								</linearGradient>
								
									<path style="mask:url(#SVGID_00000090265441731027450110000003010978987095178175_);fill:url(#SVGID_00000124864223793186609050000006711121671364529576_);" d="
									M820.2,1003.1l0.3-173c0-2,1.6-3.6,3.6-3.6c2,0,3.6,1.6,3.6,3.7l-0.3,173L820.2,1003.1z"/>
							</g>
						</mask>
						
							<linearGradient id="SVGID_00000078729742506041650310000011779494386617939899_" gradientUnits="userSpaceOnUse" x1="3900.928" y1="412.6969" x2="3900.928" y2="570.0645" gradientTransform="matrix(-1 -2.000000e-03 -2.000000e-03 1 4725.8696 422.0288)">
							<stop  offset="0" style="stop-color:#09426C"/>
							<stop  offset="0.4402" style="stop-color:#041E30"/>
							<stop  offset="0.5879" style="stop-color:#02111B"/>
							<stop  offset="1" style="stop-color:#02111B"/>
						</linearGradient>
						<path style="fill:url(#SVGID_00000078729742506041650310000011779494386617939899_);" d="M820.2,1003.1l0.3-173
							c0-2,1.6-3.6,3.6-3.6c2,0,3.6,1.6,3.6,3.7l-0.3,173L820.2,1003.1z"/>
						<defs>
							
								<filter id="Adobe_OpacityMaskFilter_00000119113241262072136830000004335850215386608060_" filterUnits="userSpaceOnUse" x="805" y="826.4" width="7.5" height="176.6">
								<feFlood  style="flood-color:white;flood-opacity:1" result="back"/>
								<feBlend  in="SourceGraphic" in2="back" mode="normal"/>
							</filter>
						</defs>
						
							<mask maskUnits="userSpaceOnUse" x="805" y="826.4" width="7.5" height="176.6" id="SVGID_00000050637120042472219270000003561346584581762178_">
							<g style="filter:url(#Adobe_OpacityMaskFilter_00000119113241262072136830000004335850215386608060_);">
								<defs>
									
										<filter id="Adobe_OpacityMaskFilter_00000120542443239505713080000007604684344864958871_" filterUnits="userSpaceOnUse" x="805" y="826.4" width="7.5" height="176.6">
										<feFlood  style="flood-color:white;flood-opacity:1" result="back"/>
										<feBlend  in="SourceGraphic" in2="back" mode="normal"/>
									</filter>
								</defs>
								
									<mask maskUnits="userSpaceOnUse" x="805" y="826.4" width="7.5" height="176.6" id="SVGID_00000050637120042472219270000003561346584581762178_">
									<g style="filter:url(#Adobe_OpacityMaskFilter_00000120542443239505713080000007604684344864958871_);">
									</g>
								</mask>
								
									<linearGradient id="SVGID_00000005252487882865786230000007259648967516745365_" gradientUnits="userSpaceOnUse" x1="3916.0691" y1="412.7094" x2="3916.0691" y2="570.0771" gradientTransform="matrix(-1 -2.000000e-03 -2.000000e-03 1 4725.8696 422.0288)">
									<stop  offset="0" style="stop-color:#FFFFFF"/>
									<stop  offset="0.5879" style="stop-color:#FFFFFF"/>
									<stop  offset="1" style="stop-color:#000000"/>
								</linearGradient>
								
									<path style="mask:url(#SVGID_00000050637120042472219270000003561346584581762178_);fill:url(#SVGID_00000005252487882865786230000007259648967516745365_);" d="
									M805,1003l0.3-173c0-2,1.6-3.6,3.7-3.6c2,0,3.6,1.6,3.6,3.6l-0.3,173L805,1003z"/>
							</g>
						</mask>
						
							<linearGradient id="SVGID_00000088822958014601023970000005721683288469815706_" gradientUnits="userSpaceOnUse" x1="3916.0691" y1="412.7094" x2="3916.0691" y2="570.0771" gradientTransform="matrix(-1 -2.000000e-03 -2.000000e-03 1 4725.8696 422.0288)">
							<stop  offset="0" style="stop-color:#09426C"/>
							<stop  offset="0.4402" style="stop-color:#041E30"/>
							<stop  offset="0.5879" style="stop-color:#02111B"/>
							<stop  offset="1" style="stop-color:#02111B"/>
						</linearGradient>
						<path style="fill:url(#SVGID_00000088822958014601023970000005721683288469815706_);" d="M805,1003l0.3-173
							c0-2,1.6-3.6,3.7-3.6c2,0,3.6,1.6,3.6,3.6l-0.3,173L805,1003z"/>
						<defs>
							
								<filter id="Adobe_OpacityMaskFilter_00000124876836875908546490000009713115381495423907_" filterUnits="userSpaceOnUse" x="789.9" y="826.4" width="7.5" height="176.6">
								<feFlood  style="flood-color:white;flood-opacity:1" result="back"/>
								<feBlend  in="SourceGraphic" in2="back" mode="normal"/>
							</filter>
						</defs>
						
							<mask maskUnits="userSpaceOnUse" x="789.9" y="826.4" width="7.5" height="176.6" id="SVGID_00000041994035315886313230000007486139499241814919_">
							<g style="filter:url(#Adobe_OpacityMaskFilter_00000124876836875908546490000009713115381495423907_);">
								<defs>
									
										<filter id="Adobe_OpacityMaskFilter_00000130629691524176608680000012077793265080450494_" filterUnits="userSpaceOnUse" x="789.9" y="826.4" width="7.5" height="176.6">
										<feFlood  style="flood-color:white;flood-opacity:1" result="back"/>
										<feBlend  in="SourceGraphic" in2="back" mode="normal"/>
									</filter>
								</defs>
								
									<mask maskUnits="userSpaceOnUse" x="789.9" y="826.4" width="7.5" height="176.6" id="SVGID_00000041994035315886313230000007486139499241814919_">
									<g style="filter:url(#Adobe_OpacityMaskFilter_00000130629691524176608680000012077793265080450494_);">
									</g>
								</mask>
								
									<linearGradient id="SVGID_00000050640656843141238070000011003367970893622460_" gradientUnits="userSpaceOnUse" x1="3931.2278" y1="412.7009" x2="3931.2278" y2="570.0684" gradientTransform="matrix(-1 -2.000000e-03 -2.000000e-03 1 4725.8696 422.0288)">
									<stop  offset="0" style="stop-color:#FFFFFF"/>
									<stop  offset="0.5879" style="stop-color:#FFFFFF"/>
									<stop  offset="1" style="stop-color:#000000"/>
								</linearGradient>
								
									<path style="mask:url(#SVGID_00000041994035315886313230000007486139499241814919_);fill:url(#SVGID_00000050640656843141238070000011003367970893622460_);" d="
									M789.9,1003l0.3-173c0-2,1.6-3.6,3.6-3.6c2,0,3.6,1.6,3.6,3.6l-0.3,173L789.9,1003z"/>
							</g>
						</mask>
						
							<linearGradient id="SVGID_00000023997635737878359870000000652523549438788778_" gradientUnits="userSpaceOnUse" x1="3931.2278" y1="412.7009" x2="3931.2278" y2="570.0684" gradientTransform="matrix(-1 -2.000000e-03 -2.000000e-03 1 4725.8696 422.0288)">
							<stop  offset="0" style="stop-color:#09426C"/>
							<stop  offset="0.4402" style="stop-color:#041E30"/>
							<stop  offset="0.5879" style="stop-color:#02111B"/>
							<stop  offset="1" style="stop-color:#02111B"/>
						</linearGradient>
						<path style="fill:url(#SVGID_00000023997635737878359870000000652523549438788778_);" d="M789.9,1003l0.3-173
							c0-2,1.6-3.6,3.6-3.6c2,0,3.6,1.6,3.6,3.6l-0.3,173L789.9,1003z"/>
						<defs>
							
								<filter id="Adobe_OpacityMaskFilter_00000049909094001193457170000001227859865396634284_" filterUnits="userSpaceOnUse" x="774.7" y="826.3" width="7.5" height="176.6">
								<feFlood  style="flood-color:white;flood-opacity:1" result="back"/>
								<feBlend  in="SourceGraphic" in2="back" mode="normal"/>
							</filter>
						</defs>
						
							<mask maskUnits="userSpaceOnUse" x="774.7" y="826.3" width="7.5" height="176.6" id="SVGID_00000039122221935453689310000013645747047284504709_">
							<g style="filter:url(#Adobe_OpacityMaskFilter_00000049909094001193457170000001227859865396634284_);">
								<defs>
									
										<filter id="Adobe_OpacityMaskFilter_00000142147390021334247530000000572325257236433796_" filterUnits="userSpaceOnUse" x="774.7" y="826.3" width="7.5" height="176.6">
										<feFlood  style="flood-color:white;flood-opacity:1" result="back"/>
										<feBlend  in="SourceGraphic" in2="back" mode="normal"/>
									</filter>
								</defs>
								
									<mask maskUnits="userSpaceOnUse" x="774.7" y="826.3" width="7.5" height="176.6" id="SVGID_00000039122221935453689310000013645747047284504709_">
									<g style="filter:url(#Adobe_OpacityMaskFilter_00000142147390021334247530000000572325257236433796_);">
									</g>
								</mask>
								
									<linearGradient id="SVGID_00000116916114179622746060000005226844591256610208_" gradientUnits="userSpaceOnUse" x1="3946.363" y1="412.694" x2="3946.363" y2="570.0657" gradientTransform="matrix(-1 -2.000000e-03 -2.000000e-03 1 4725.8696 422.0288)">
									<stop  offset="0" style="stop-color:#FFFFFF"/>
									<stop  offset="0.5879" style="stop-color:#FFFFFF"/>
									<stop  offset="1" style="stop-color:#000000"/>
								</linearGradient>
								
									<path style="mask:url(#SVGID_00000039122221935453689310000013645747047284504709_);fill:url(#SVGID_00000116916114179622746060000005226844591256610208_);" d="
									M774.7,1003l0.2-173c0-2,1.6-3.7,3.7-3.6c2,0,3.6,1.6,3.6,3.6l-0.3,173L774.7,1003z"/>
							</g>
						</mask>
						
							<linearGradient id="SVGID_00000135661537473954417780000015251695542065365176_" gradientUnits="userSpaceOnUse" x1="3946.363" y1="412.694" x2="3946.363" y2="570.0657" gradientTransform="matrix(-1 -2.000000e-03 -2.000000e-03 1 4725.8696 422.0288)">
							<stop  offset="0" style="stop-color:#09426C"/>
							<stop  offset="0.4402" style="stop-color:#041E30"/>
							<stop  offset="0.5879" style="stop-color:#02111B"/>
							<stop  offset="1" style="stop-color:#02111B"/>
						</linearGradient>
						<path style="fill:url(#SVGID_00000135661537473954417780000015251695542065365176_);" d="M774.7,1003l0.2-173
							c0-2,1.6-3.7,3.7-3.6c2,0,3.6,1.6,3.6,3.6l-0.3,173L774.7,1003z"/>
						<polygon class="st20" points="775,814.5 827.7,814.6 827.8,806.9 775.1,806.8 						"/>
						<polygon class="st20" points="782.2,548 792.8,514.8 799.6,514.8 804.3,514.8 811.1,514.8 821.7,548.1 808.8,576.1 
							808.4,792.4 794.5,792.3 794.9,576 						"/>
					</g>
				</g>
				<g>
					<path class="st53" d="M844.6,863.2c-1-3.2-6-9-8.4-7.8c-4.8,2.4,1.8,6,2,14c0.2,5.1,7.7,7.4,7.7,7.4S846.6,869.9,844.6,863.2z"
						/>
					<path class="st53" d="M833.6,890.7c7.9,2.1,11.1,0.5,11.6-7.1c0.2-3.6,1.6-10.6,0.6-14.4c-1.5-6.1-0.4-8.1-15.2-4.2
						C823.4,866.9,826.4,888.9,833.6,890.7z"/>
				</g>
				<g>
					<path class="st53" d="M778.4,955.4c0.7-3.3,5.3-9.4,7.7-8.4c5,2-1.3,6.1-0.9,14.1c0.3,5.1-7.1,8-7.1,8S776.9,962.1,778.4,955.4
						z"/>
					<path class="st53" d="M796.8,980.1c-7.7,2.7-16.2,3.1-17.4-4.4c-0.5-3.5-2.4-10.5-1.8-14.3c1-6.2,4.9-9.8,20.1-7.2
						C805.1,955.5,803.9,977.7,796.8,980.1z"/>
				</g>
				<g>
					<path class="st53" d="M683.8,989.5c22.5-11.8,84.5-16.6,94.2-23.5c6.3-4.5,12.5,7.6,4.2,10.7c-6.4,2.4-64,24.7-80.5,30.4
						c-7.5,2.6-18.9,5.6-22,0.9C674.8,1000.4,675.4,993.9,683.8,989.5z"/>
				</g>
				<g>
					<path class="st73" d="M651.9,1001.9c0,0,25.3,7.6,33.2,8.5c5.7,0.6,5.9-7.3,6.1-12.1c0.2-4.9-13.9-16.3-28.2-21.7
						C652,972.4,650.4,1000.2,651.9,1001.9z"/>
					
						<linearGradient id="SVGID_00000021831894873886181730000004205234976608813995_" gradientUnits="userSpaceOnUse" x1="9804.7119" y1="771.2617" x2="9804.7119" y2="1166.791" gradientTransform="matrix(-0.3218 -0.9468 0.9468 -0.3218 2880.917 10563.8447)">
						<stop  offset="0" style="stop-color:#FCBE14"/>
						<stop  offset="1" style="stop-color:#FD890C"/>
					</linearGradient>
					<path style="fill:url(#SVGID_00000021831894873886181730000004205234976608813995_);" d="M583.8,992.5
						c24.3,8.2,82.5,17.4,82.5,17.4s5.3-5,8.3-18.9c4.5-20.9,0.2-29.1,0.2-29.1s-40.8-16.1-65.8-23.3c-12.3-3.5-22.3-2.8-27.6,9.3
						C574.2,964.4,569.1,987.5,583.8,992.5z"/>
				</g>
			</g>
		</g>
	</g>
</g>
</svg>
